<svg width="180" height="56" viewBox="0 0 180 56" fill="none" xmlns="http://www.w3.org/2000/svg">
<path id="Vector" fill-rule="evenodd" clip-rule="evenodd" d="M172.351 0.604492H7.42487C5.48688 0.608005 3.62936 1.38073 2.25961 2.75324C0.889863 4.12575 0.119672 5.98602 0.11792 7.92616V47.6932C0.118735 49.6341 0.888486 51.4954 2.25831 52.8688C3.62814 54.2422 5.48619 55.0156 7.42487 55.0194H172.351C174.29 55.0156 176.148 54.2422 177.518 52.8688C178.888 51.4954 179.657 49.6341 179.658 47.6932V7.92616C179.656 5.98602 178.886 4.12575 177.516 2.75324C176.147 1.38073 174.289 0.608005 172.351 0.604492ZM177.571 47.6932C177.57 49.0796 177.02 50.4091 176.042 51.3902C175.063 52.3713 173.736 52.9239 172.351 52.9268H7.42487C6.04005 52.9239 4.71291 52.3713 3.73448 51.3902C2.75605 50.4091 2.20619 49.0796 2.20549 47.6932V7.92616C2.20666 6.54028 2.75678 5.21142 3.73521 4.23099C4.71364 3.25057 6.04052 2.69862 7.42487 2.69616H172.351C173.736 2.69862 175.062 3.25057 176.041 4.23099C177.019 5.21142 177.569 6.54028 177.571 7.92616V47.6932ZM40.5375 26.4184C40.4986 22.0696 44.0891 19.955 44.2535 19.8576C43.542 18.8379 42.6026 17.9985 41.51 17.4064C40.4173 16.8142 39.2017 16.4856 37.9598 16.4467C35.3128 16.1636 32.7453 18.035 31.3962 18.035C30.0205 18.035 27.9436 16.4733 25.7057 16.5175C24.258 16.5645 22.8471 16.9867 21.6111 17.7427C20.375 18.4987 19.3559 19.5627 18.6533 20.8309C15.6042 26.122 17.8778 33.9037 20.7997 38.1817C22.2615 40.2742 23.9695 42.6146 26.2051 42.5349C28.3921 42.442 29.2101 41.1325 31.8483 41.1325C34.4635 41.1325 35.2306 42.5349 37.5104 42.4818C39.8578 42.442 41.3356 40.376 42.7461 38.2613C43.7961 36.768 44.6041 35.1182 45.1404 33.3728C43.7762 32.7937 42.6123 31.8255 41.7938 30.5889C40.9753 29.3523 40.5384 27.9018 40.5375 26.4184ZM36.2307 13.6287C37.5114 12.0888 38.1418 10.1098 37.9881 8.11196C36.2859 8.18717 34.1563 9.29318 32.9305 10.7354C31.8456 12.0051 30.8765 14.0887 31.1271 16.0486C33.0401 16.1946 35.003 15.0842 36.2307 13.6287ZM62.8335 24.2772L57.0675 42.2341H60.0433L61.6382 36.9563H67.4577L69.1321 42.2341H72.1887L66.3944 24.2772H62.8335ZM62.1442 34.7443L63.6316 30.0549C64.022 28.564 64.3054 27.4374 64.4819 26.675H64.5358C64.9777 28.449 65.2788 29.5756 65.439 30.0549L66.953 34.7443H62.1442ZM81.6765 29.0197C79.7277 29.0197 78.275 29.7924 77.3184 31.3378H77.2645L77.1045 29.2851H74.5795C74.6493 30.7406 74.6846 32.1607 74.6855 33.5454V47.5075H77.5553V40.6857H77.6092C78.3533 41.9111 79.576 42.5246 81.277 42.5261C82.0205 42.541 82.7587 42.3964 83.4416 42.1018C84.1246 41.8072 84.7367 41.3696 85.2365 40.8184C86.4241 39.5399 87.0177 37.7998 87.0174 35.5981C87.0174 33.6294 86.5077 32.0397 85.4884 30.829C85.0332 30.2558 84.4528 29.7946 83.7918 29.4809C83.1307 29.1672 82.4066 29.0094 81.6752 29.0197H81.6765ZM83.1905 39.009C82.908 39.4124 82.529 39.7383 82.088 39.9571C81.6471 40.1758 81.1584 40.2803 80.6667 40.261C80.2439 40.2752 79.8233 40.1952 79.4351 40.0269C79.0469 39.8586 78.7008 39.6061 78.4219 39.2877C77.8429 38.6309 77.5342 37.7788 77.5579 36.9032V34.7443C77.5673 34.4481 77.6118 34.154 77.6905 33.8683C77.8454 33.1398 78.2438 32.4859 78.82 32.0147C79.358 31.5579 80.0404 31.3071 80.7458 31.3069C81.2361 31.2949 81.7216 31.4061 82.1579 31.6302C82.5943 31.8543 82.9676 32.1842 83.244 32.5898C83.843 33.5147 84.1402 34.603 84.0946 35.7043C84.1506 36.8741 83.8335 38.0315 83.1892 39.009H83.1905ZM96.5326 29.0197C94.5823 29.0197 93.1296 29.7924 92.1745 31.3378H92.1206L91.9606 29.2851H89.4369C89.5067 30.7406 89.5422 32.1607 89.5433 33.5454V47.5075H92.4127V40.6857H92.4666C93.2096 41.9111 94.4322 42.5246 96.1344 42.5261C96.8778 42.5411 97.6158 42.3964 98.2987 42.1019C98.9815 41.8073 99.5934 41.3697 100.093 40.8184C101.281 39.5399 101.875 37.7998 101.875 35.5981C101.875 33.6294 101.366 32.0397 100.348 30.829C99.8924 30.2557 99.3113 29.7945 98.6496 29.4809C97.9879 29.1673 97.2633 29.0095 96.5312 29.0197H96.5326ZM98.0452 39.009C97.7628 39.4124 97.3837 39.7383 96.9428 39.9571C96.5019 40.1758 96.0132 40.2803 95.5215 40.261C95.0984 40.2746 94.6775 40.1944 94.2889 40.0261C93.9004 39.8579 93.5538 39.6057 93.2739 39.2877C92.6967 38.63 92.3891 37.7783 92.4127 36.9032V34.7443C92.4227 34.4482 92.4672 34.1541 92.5452 33.8683C92.6998 33.14 93.0977 32.4862 93.6734 32.0147C94.2119 31.5579 94.8948 31.3071 95.6006 31.3069C96.0907 31.2948 96.576 31.4059 97.0122 31.63C97.4483 31.8541 97.8214 32.1841 98.0974 32.5898C98.6968 33.5146 98.9945 34.6028 98.9494 35.7043C99.0056 36.874 98.6893 38.0314 98.0452 39.009ZM113.993 31.8997C113.055 31.5804 112.175 31.1129 111.386 30.515C111.123 30.305 110.912 30.0374 110.77 29.7328C110.627 29.4283 110.556 29.0949 110.563 28.7587C110.559 28.4517 110.621 28.1474 110.745 27.8665C110.869 27.5856 111.051 27.3347 111.28 27.1306C111.95 26.6003 112.791 26.3357 113.644 26.3874C114.837 26.3673 116.017 26.6504 117.072 27.2103L117.789 24.8655C116.523 24.2567 115.128 23.9638 113.724 24.0117C111.897 24.0117 110.435 24.4836 109.339 25.4274C108.807 25.8675 108.383 26.4228 108.097 27.0513C107.812 27.6797 107.673 28.3649 107.69 29.0551C107.69 31.3157 109.258 33.0322 112.393 34.2045C113.304 34.4899 114.146 34.9631 114.864 35.5937C115.107 35.8332 115.298 36.1201 115.426 36.4367C115.554 36.7532 115.616 37.0927 115.608 37.4341C115.622 37.8087 115.547 38.1813 115.391 38.5218C115.234 38.8622 114.999 39.161 114.706 39.3939C113.974 39.924 113.082 40.1835 112.18 40.1282C110.718 40.1388 109.282 39.7421 108.032 38.9825L107.369 41.3803C108.539 42.1235 110.086 42.4965 112.009 42.4995C114.097 42.4995 115.723 41.9745 116.888 40.9246C117.409 40.4572 117.822 39.8811 118.097 39.2367C118.372 38.5923 118.502 37.8954 118.479 37.1952C118.516 36.059 118.128 34.95 117.391 34.0851C116.442 33.1034 115.278 32.3553 113.991 31.8997H113.993ZM124.806 26.06L121.987 26.9094V29.2807H120.103V31.4396H121.987V37.9649C121.987 39.6018 122.306 40.7653 122.945 41.4554C123.287 41.8095 123.702 42.0856 124.161 42.265C124.619 42.4443 125.111 42.5228 125.603 42.4951C126.359 42.5202 127.115 42.4124 127.834 42.1765L127.755 39.9911C127.338 40.0925 126.909 40.1385 126.48 40.1282C125.363 40.1282 124.805 39.329 124.806 37.7305V31.444H127.969V29.2807H124.806V26.06ZM136.018 29.0197C135.144 28.9795 134.272 29.1305 133.462 29.4621C132.653 29.7936 131.925 30.2978 131.329 30.9396C130.139 32.2979 129.516 34.0625 129.589 35.868C129.527 37.6131 130.13 39.3166 131.277 40.6326C131.847 41.262 132.548 41.758 133.33 42.0852C134.113 42.4125 134.958 42.563 135.806 42.5261C136.691 42.5632 137.573 42.4058 138.391 42.0649C139.208 41.724 139.941 41.208 140.538 40.553C141.702 39.192 142.309 37.4413 142.239 35.6512C142.313 33.9191 141.723 32.2242 140.59 30.9131C140.01 30.2849 139.301 29.7901 138.511 29.4632C137.722 29.1363 136.871 28.9849 136.017 29.0197H136.018ZM138.467 38.8409C138.226 39.318 137.858 39.7185 137.403 39.9976C136.948 40.2766 136.424 40.423 135.891 40.4202C135.356 40.4284 134.829 40.288 134.369 40.0147C133.908 39.7414 133.533 39.3458 133.283 38.8719C132.748 37.9378 132.482 36.8736 132.513 35.7972C132.477 34.7049 132.744 33.624 133.283 32.6739C133.532 32.1943 133.911 31.7947 134.377 31.5209C134.842 31.247 135.375 31.11 135.915 31.1255C136.446 31.1152 136.969 31.2551 137.425 31.5289C137.88 31.8028 138.25 32.1996 138.49 32.6739C139 33.6224 139.265 34.6835 139.261 35.7606C139.256 36.8377 138.983 37.8966 138.465 38.8409H138.467ZM148.776 29.7143C148.111 30.2448 147.613 30.9559 147.341 31.7626H147.262L147.157 29.2851H144.658C144.729 30.5105 144.765 31.8702 144.765 33.364L144.738 42.2341H147.606V35.4388C147.57 34.5321 147.822 33.6372 148.324 32.8818C148.586 32.5094 148.938 32.2092 149.347 32.009C149.756 31.8087 150.208 31.7148 150.663 31.736C150.966 31.7346 151.269 31.7613 151.567 31.8156V29.0727C151.33 29.0355 151.09 29.0177 150.85 29.0197C150.102 29.0203 149.374 29.2641 148.776 29.7143ZM159.034 28.9976C158.172 28.964 157.313 29.1343 156.529 29.4948C155.744 29.8553 155.056 30.3957 154.519 31.0724C153.425 32.4557 152.859 34.1842 152.923 35.9476C152.923 37.934 153.495 39.5222 154.636 40.699C155.777 41.8757 157.352 42.473 159.355 42.473C160.838 42.5085 162.313 42.2358 163.685 41.6722L163.236 39.677C162.123 40.0959 160.941 40.3029 159.752 40.2875C158.736 40.3328 157.737 40.011 156.937 39.3806C156.527 39.0142 156.202 38.5617 155.987 38.0556C155.771 37.5494 155.669 37.002 155.688 36.452H164.297C164.373 36.0213 164.408 35.5842 164.401 35.1469C164.45 33.7037 164.053 32.2806 163.263 31.0724C162.304 29.6877 160.893 28.9961 159.032 28.9976H159.034ZM155.687 34.3992C155.753 33.5876 156.047 32.8113 156.536 32.1607C156.791 31.7921 157.133 31.4923 157.531 31.2878C157.93 31.0833 158.373 30.9804 158.82 30.9884C159.274 30.9615 159.727 31.0588 160.13 31.27C160.533 31.4813 160.871 31.7984 161.107 32.1872C161.508 32.853 161.702 33.6229 161.664 34.3992H155.685H155.687ZM60.5087 16.8316C60.1422 16.8308 59.7776 16.7787 59.4255 16.6768C59.1247 16.5921 58.8319 16.4811 58.5506 16.345L58.197 17.4333C58.5506 17.6358 58.9341 17.7806 59.3332 17.8624C59.7409 17.9508 60.1569 17.9953 60.5741 17.9952C60.9696 17.9932 61.3637 17.9472 61.7491 17.858C62.1278 17.7729 62.488 17.6201 62.8123 17.4067C63.1272 17.1973 63.3904 16.9189 63.5821 16.5927C63.7898 16.2171 63.8917 15.792 63.8769 15.3629C63.8801 15.0845 63.8245 14.8086 63.7138 14.5533C63.6098 14.3126 63.4597 14.0947 63.2719 13.9118C63.0836 13.7251 62.8623 13.5751 62.6192 13.4694C62.3662 13.3617 62.1008 13.2859 61.8291 13.2438V13.204C62.311 13.0944 62.747 12.8378 63.077 12.4696C63.4056 12.0934 63.5794 11.6064 63.5631 11.107C63.5753 10.7982 63.5156 10.4907 63.3888 10.209C63.262 9.9272 63.0714 9.67881 62.8322 9.48341C62.257 9.05718 61.551 8.84588 60.8366 8.88616C60.3743 8.87654 59.9135 8.94078 59.4715 9.07641C59.1094 9.19004 58.7613 9.34438 58.4339 9.53649L58.7432 10.5451C59.0228 10.4122 59.311 10.2985 59.6058 10.2045C59.9174 10.1 60.2437 10.0463 60.5723 10.0453C60.9738 10.0255 61.37 10.1442 61.6947 10.3815C61.8325 10.4915 61.9423 10.6327 62.015 10.7934C62.0877 10.9541 62.1214 11.1298 62.1132 11.3061C62.116 11.5111 62.0669 11.7135 61.9705 11.8945C61.8711 12.0712 61.7356 12.225 61.5728 12.3457C61.3922 12.4792 61.1887 12.5782 60.9722 12.6377C60.7289 12.7124 60.4754 12.7482 60.221 12.7439H59.6328V13.8189H60.2174C60.4731 13.8215 60.7283 13.8437 60.9806 13.8853C61.2243 13.9258 61.46 14.0049 61.6788 14.1197C61.8848 14.2318 62.0601 14.3928 62.1892 14.5887C62.3577 14.8821 62.4204 15.2245 62.367 15.5586C62.3136 15.8928 62.1473 16.1985 61.8958 16.4246C61.4944 16.7187 61.0028 16.8627 60.5064 16.8316H60.5087ZM66.6728 14.3365C66.3637 14.5172 66.1101 14.7795 65.9398 15.0947C65.7694 15.4099 65.6888 15.7659 65.7068 16.1238C65.704 16.3786 65.7525 16.6314 65.8496 16.867C65.9409 17.0899 66.079 17.2905 66.2544 17.4554C66.4309 17.6261 66.6395 17.7599 66.8682 17.8491C67.1171 17.9491 67.3834 17.9988 67.6517 17.9952C68.0095 18.0152 68.3666 17.945 68.6903 17.7912C69.0141 17.6374 69.2942 17.4049 69.505 17.1148H69.5417L69.6455 17.8491H70.9116C70.8409 17.3466 70.8103 16.8391 70.8201 16.3317V13.9914C70.8201 12.2351 69.9901 11.3577 68.33 11.3592C67.5674 11.3332 66.813 11.5233 66.1536 11.9077L66.4404 12.8368C66.9327 12.5189 67.5087 12.3556 68.0945 12.3678C68.9721 12.3678 69.4109 12.7837 69.4109 13.6242V13.7393C68.4598 13.6852 67.512 13.8916 66.6693 14.3365H66.6728ZM69.4524 14.6816V15.6637C69.4539 15.8428 69.4143 16.0199 69.3367 16.1813C69.261 16.3365 69.1568 16.4761 69.0295 16.5927C68.9029 16.7084 68.7561 16.7999 68.5965 16.8626C68.4311 16.9283 68.2547 16.9613 68.0768 16.9599C67.9452 16.9697 67.8131 16.9504 67.6898 16.9034C67.5665 16.8563 67.455 16.7827 67.3633 16.6877C67.2716 16.5927 67.202 16.4787 67.1592 16.3537C67.1165 16.2287 67.1018 16.0958 67.1161 15.9645C67.1052 15.7621 67.1542 15.5611 67.2568 15.3864C67.3595 15.2117 67.5112 15.0712 67.6932 14.9824C68.2486 14.7505 68.8494 14.6477 69.4502 14.6816H69.4524ZM74.9882 12.6554H77.626V11.4875H73.579V17.8491H74.9882V12.6554ZM79.634 13.5844V20.4416H81.0446V17.0926H81.0715C81.2609 17.3935 81.529 17.6367 81.8467 17.7958C82.1644 17.9549 82.5196 18.0239 82.8736 17.9952C83.2611 17.9994 83.6446 17.9165 83.9959 17.7526C84.3472 17.5888 84.6573 17.3481 84.9033 17.0484C85.1643 16.7324 85.3618 16.3689 85.4849 15.9778C85.6284 15.5305 85.6988 15.0629 85.6934 14.5931C85.6988 14.1455 85.6306 13.7001 85.4915 13.2748C85.3713 12.9027 85.1832 12.5562 84.9369 12.2528C84.7108 11.9762 84.4282 11.7515 84.1079 11.5937C83.7856 11.4334 83.4301 11.3516 83.0703 11.3547C82.6435 11.3325 82.2187 11.4271 81.8414 11.6281C81.4642 11.8292 81.1487 12.1293 80.9288 12.4961H80.8987L80.8196 11.4875H79.5801C79.596 11.8546 79.6097 12.2086 79.6177 12.5536C79.6256 12.8987 79.6318 13.2438 79.6318 13.5844H79.634ZM81.0446 14.1728C81.0446 13.7254 81.2155 13.2949 81.5223 12.9695C81.6653 12.8203 81.8357 12.7001 82.0243 12.6156C82.2093 12.5325 82.4096 12.4888 82.6125 12.4873C82.8515 12.4831 83.0877 12.5394 83.2992 12.651C83.5036 12.758 83.6819 12.9091 83.8211 13.0934C83.9722 13.2975 84.0829 13.5288 84.1472 13.7747C84.2239 14.0587 84.2613 14.3519 84.2586 14.6462C84.2866 15.2226 84.1301 15.793 83.8118 16.2742C83.6723 16.4716 83.4857 16.6308 83.2689 16.7375C83.0522 16.8441 82.8122 16.8947 82.5709 16.8847C82.3582 16.8881 82.1473 16.8458 81.9523 16.7608C81.7682 16.6799 81.6035 16.5607 81.4688 16.4113C81.3318 16.2593 81.2258 16.082 81.1568 15.8893C81.0806 15.6796 81.0427 15.4578 81.045 15.2346L81.0446 14.1728ZM90.5456 18.4729C90.9777 17.6421 91.3506 16.7817 91.6614 15.8982L93.2678 11.4919H91.7653L90.6941 15.0222C90.6057 15.3054 90.5377 15.5487 90.4851 15.7655C90.4325 15.9822 90.3856 16.1547 90.3428 16.2963H90.3158C90.2455 16.0397 90.181 15.8097 90.1192 15.6018C90.0573 15.3938 89.9981 15.2036 89.9362 15.0355L88.7342 11.4919H87.1809L89.4788 17.3404C89.5175 17.4369 89.5437 17.538 89.5566 17.6412C89.5412 17.7429 89.506 17.8406 89.4532 17.9288C89.2657 18.331 88.9945 18.6885 88.6578 18.9773C88.3556 19.2397 87.9989 19.4316 87.6135 19.5391L87.9525 20.7291C88.5358 20.617 89.075 20.3407 89.5071 19.9328C89.9269 19.5036 90.2766 19.0109 90.5434 18.4729H90.5456ZM96.6086 16.9865C96.3064 16.9874 96.0056 16.9457 95.715 16.8626C95.4461 16.7883 95.1861 16.6845 94.9399 16.5529L94.5723 17.4864C94.8957 17.6657 95.2441 17.7954 95.6059 17.8713C95.9877 17.9524 96.3769 17.9939 96.7672 17.9952C97.1 17.9932 97.4318 17.9591 97.758 17.8934C98.0831 17.8343 98.3975 17.727 98.6909 17.5748C98.9678 17.4318 99.2074 17.2257 99.3904 16.9732C99.5812 16.6971 99.6772 16.3664 99.6639 16.0309C99.667 15.8189 99.6185 15.6093 99.5225 15.4204C99.4268 15.2456 99.2984 15.0909 99.1443 14.9647C98.9847 14.8356 98.8057 14.7326 98.614 14.6595C98.4194 14.5804 98.2155 14.5269 98.0072 14.5002V14.4604C98.175 14.4223 98.3386 14.3674 98.4955 14.2967C98.654 14.2224 98.8009 14.1256 98.9317 14.0091C99.0603 13.8941 99.1662 13.7561 99.2441 13.6021C99.3261 13.439 99.3668 13.2582 99.3626 13.0757C99.3735 12.7889 99.2986 12.5054 99.1473 12.2616C99.0059 12.044 98.8159 11.8623 98.5923 11.7308C98.3519 11.5921 98.0898 11.4949 97.8172 11.4432C97.5309 11.3868 97.2398 11.3587 96.948 11.3592C96.5822 11.3584 96.2173 11.3955 95.8591 11.4698C95.4769 11.5521 95.1091 11.6907 94.7676 11.8812L95.1322 12.797C95.3586 12.6702 95.597 12.5665 95.8441 12.4873C96.0903 12.4076 96.3472 12.3658 96.6059 12.3634C96.9303 12.3448 97.2523 12.4284 97.5269 12.6023C97.6318 12.6694 97.7177 12.7625 97.7761 12.8725C97.8346 12.9826 97.8636 13.1059 97.8605 13.2305C97.8556 13.3621 97.817 13.4902 97.7484 13.6026C97.6797 13.7149 97.5834 13.8077 97.4685 13.872C97.132 14.0646 96.7468 14.1553 96.3598 14.133H95.7084V15.0222H96.3713C96.5983 15.0217 96.825 15.038 97.0496 15.0709C97.2403 15.0955 97.4258 15.1508 97.5989 15.2346C97.7443 15.3038 97.8697 15.4088 97.9635 15.5398C98.0531 15.6777 98.0984 15.8399 98.093 16.0043C98.0918 16.1435 98.0562 16.2803 97.9892 16.4023C97.9223 16.5243 97.8261 16.6277 97.7094 16.7033C97.381 16.9123 96.9947 17.0115 96.6064 16.9865H96.6086ZM106.216 15.5973V17.8447H107.546V11.4875H105.719L104.152 14.4958C103.987 14.8276 103.824 15.1549 103.661 15.4735C103.499 15.792 103.338 16.1149 103.173 16.4467L103.146 16.4202C103.173 15.9689 103.193 15.5354 103.212 15.124C103.23 14.7125 103.239 14.2569 103.239 13.7393V11.4875H101.894V17.8491H103.721C104.015 17.3006 104.295 16.7609 104.56 16.2388C104.825 15.7168 105.095 15.1903 105.365 14.6683C105.512 14.363 105.66 14.0667 105.807 13.7791C105.974 13.4474 106.122 13.1061 106.249 12.7571H106.316C106.289 13.2349 106.266 13.7127 106.244 14.1817C106.222 14.6506 106.213 15.124 106.213 15.5973H106.216ZM111.673 17.8491H113.059V12.6554H114.991V11.4875H109.752V12.6554H111.671V17.8491H111.673ZM121.609 16.5927C121.062 16.7991 120.482 16.9011 119.898 16.8936C119.377 16.9182 118.865 16.7426 118.469 16.4025C118.283 16.2223 118.136 16.0054 118.039 15.7655C117.941 15.5256 117.894 15.2679 117.901 15.0089H122.129C122.148 14.9125 122.161 14.815 122.168 14.717C122.176 14.6064 122.181 14.4913 122.181 14.3675C122.187 13.9488 122.125 13.5319 121.997 13.1332C121.887 12.7819 121.707 12.4568 121.467 12.1776C121.239 11.9121 120.954 11.7019 120.634 11.5627C120.289 11.4143 119.917 11.3404 119.542 11.3459C119.128 11.3377 118.718 11.4215 118.341 11.5914C117.963 11.7612 117.628 12.0128 117.36 12.328C117.093 12.6473 116.887 13.0133 116.753 13.4075C116.609 13.8439 116.537 14.3013 116.541 14.7612C116.534 15.2111 116.606 15.6587 116.753 16.084C116.888 16.4593 117.099 16.8027 117.372 17.0926C117.652 17.3783 117.991 17.5988 118.366 17.7385C118.791 17.8963 119.242 17.9743 119.695 17.9686C120.424 17.9849 121.149 17.8509 121.824 17.5748L121.609 16.5927ZM118.399 12.797C118.528 12.6475 118.689 12.5281 118.869 12.4471C119.049 12.3661 119.245 12.3254 119.442 12.328C119.639 12.3165 119.837 12.3527 120.017 12.4335C120.198 12.5144 120.356 12.6375 120.48 12.7925C120.732 13.1446 120.858 13.5718 120.838 14.0047H117.902C117.928 13.5581 118.102 13.1328 118.397 12.797H118.399ZM130.793 17.8757C131.179 17.8419 131.559 17.7586 131.924 17.6279C132.267 17.5057 132.577 17.3023 132.826 17.0351C133.079 16.7429 133.209 16.3641 133.19 15.9778C133.201 15.782 133.167 15.5864 133.093 15.4051C133.018 15.2237 132.905 15.0612 132.76 14.9293C132.44 14.6611 132.051 14.4893 131.637 14.4338L131.624 14.394C131.789 14.3598 131.949 14.3048 132.1 14.2303C132.249 14.1579 132.386 14.0624 132.505 13.9472C132.624 13.8342 132.72 13.6989 132.787 13.549C132.858 13.3861 132.894 13.2095 132.891 13.0314C132.907 12.7072 132.799 12.3892 132.589 12.1422C132.383 11.9216 132.128 11.7532 131.845 11.6511C131.544 11.5428 131.23 11.473 130.912 11.4432C130.586 11.4123 130.293 11.399 130.031 11.399C129.621 11.399 129.221 11.4078 128.83 11.4388C128.438 11.4698 128.118 11.5007 127.865 11.5405V17.8491C128.091 17.8668 128.369 17.8845 128.704 17.9022C129.039 17.9199 129.38 17.9288 129.73 17.9288C130.042 17.9288 130.397 17.9111 130.79 17.8757H130.793ZM129.221 12.4475C129.414 12.4298 129.563 12.4165 129.671 12.4076C129.779 12.3988 129.91 12.3944 130.057 12.3944C130.444 12.3686 130.831 12.4384 131.185 12.5979C131.3 12.6572 131.395 12.7485 131.459 12.8607C131.523 12.973 131.553 13.1014 131.546 13.2305C131.551 13.3735 131.507 13.5139 131.422 13.6287C131.331 13.7455 131.211 13.8369 131.074 13.8941C130.909 13.9618 130.736 14.0094 130.559 14.0357C130.354 14.0665 130.147 14.0813 129.94 14.0799H129.223V12.4475H129.221ZM129.221 16.8936V14.9957H129.966C130.411 14.9787 130.855 15.0494 131.272 15.2036C131.423 15.2613 131.551 15.366 131.638 15.5022C131.725 15.6383 131.767 15.7988 131.756 15.9601C131.763 16.1392 131.709 16.3154 131.603 16.46C131.497 16.5904 131.361 16.6923 131.206 16.7564C131.031 16.8332 130.846 16.8839 130.657 16.9068C130.462 16.933 130.266 16.9463 130.07 16.9466C129.911 16.9466 129.775 16.9422 129.656 16.9334C129.538 16.9245 129.393 16.9113 129.219 16.8936H129.221Z" fill="#0C336F"/>
</svg>
