<svg width="24" height="24" viewBox="0 0 24 24" fill="none" xmlns="http://www.w3.org/2000/svg">
<g id="comment">
<g id="Vector">
<path d="M5.57092 4.05884C2.49834 4.05884 0 6.6309 0 9.79413C0 12.6044 1.95839 14.9735 4.61529 15.4456C4.76099 17.4662 3.14114 19.1691 3.124 19.1868C2.98687 19.3324 2.95687 19.5485 3.05543 19.7206C3.13686 19.8618 3.27827 19.9412 3.42826 19.9412C3.46254 19.9412 3.50111 19.9368 3.53968 19.9235C11.3175 17.7 11.1547 10.1956 11.1418 9.78531C11.1333 6.62648 8.63921 4.05884 5.57092 4.05884Z" fill="#00AFDC"/>
<path d="M23.9978 9.78531C23.9892 6.62648 21.4952 4.05884 18.4269 4.05884C15.3543 4.05884 12.856 6.6309 12.856 9.79413C12.856 12.6044 14.8144 14.9735 17.4713 15.4456C17.617 17.4662 15.9971 19.1691 15.98 19.1868C15.8428 19.3324 15.8128 19.5485 15.9114 19.7206C15.9928 19.8618 16.1342 19.9412 16.2842 19.9412C16.3185 19.9412 16.3571 19.9368 16.3956 19.9235C24.1735 17.7 24.0107 10.1956 23.9978 9.78531Z" fill="#00AFDC"/>
</g>
</g>
</svg>
