<svg width="45" height="46" viewBox="0 0 45 46" fill="none" xmlns="http://www.w3.org/2000/svg">
<g id="delivery">
<path id="Vector" d="M19.7376 37.1427C19.7376 40.1004 17.3415 42.498 14.3858 42.498C11.4301 42.498 9.03403 40.1004 9.03403 37.1427M19.7376 37.1427C19.7376 34.185 17.3415 31.7874 14.3858 31.7874C11.4301 31.7874 9.03403 34.185 9.03403 37.1427M19.7376 37.1427H25.2895M9.03403 37.1427C4.45905 37.1427 2.81226 35.2801 2.81226 31.2112M35.993 37.1427C35.993 40.1004 33.597 42.498 30.6413 42.498C27.6855 42.498 25.2895 40.1004 25.2895 37.1427M35.993 37.1427C35.993 34.185 33.597 31.7874 30.6413 31.7874C27.6855 31.7874 25.2895 34.185 25.2895 37.1427M35.993 37.1427C39.8196 37.1427 42.1873 35.7437 42.1873 32.3958V21.8373M2.81226 13.0812H16.4521M2.81226 20.9103H10.79M2.81226 3.50159C2.81226 3.50159 21.9877 3.50159 25.2895 3.50159C28.5912 3.50159 28.5912 6.80552 28.5912 6.80552V10.3001M42.1873 21.8373H28.5912V10.3001M42.1873 21.8373C42.1873 21.8373 42.1873 22.5068 42.1873 18.0774C42.1873 13.648 38.0181 10.3001 34.4151 10.3001C30.8122 10.3001 28.5912 10.3001 28.5912 10.3001" stroke="#0C336F" stroke-width="2" stroke-linecap="round"/>
</g>
</svg>
