<svg width="32" height="32" viewBox="0 0 32 32" fill="none" xmlns="http://www.w3.org/2000/svg">
<rect width="32" height="32" rx="16" fill="#1D52A1"/>
<path fill-rule="evenodd" clip-rule="evenodd" d="M13.3334 14.1438H14.482V12.9953C14.482 12.4838 14.5073 11.6687 14.8649 11.1768C15.2396 10.6588 15.7017 10.3154 16.5879 10.3154C18.0333 10.3154 18.6938 10.5068 18.6938 10.5068L18.4066 12.3253C18.099 12.2137 17.7763 12.1492 17.4494 12.1339C17.0012 12.1339 16.5879 12.2427 16.5879 12.7082V14.1438H18.5023V15.8666H16.5879V21.8963H14.482V15.8666H13.3334V14.1438Z" fill="#1D52A1"/>
<path fill-rule="evenodd" clip-rule="evenodd" d="M13.3334 14.1438H14.482V12.9953C14.482 12.4838 14.5073 11.6687 14.8649 11.1768C15.2396 10.6588 15.7017 10.3154 16.5879 10.3154C18.0333 10.3154 18.6938 10.5068 18.6938 10.5068L18.4066 12.3253C18.099 12.2137 17.7763 12.1492 17.4494 12.1339C17.0012 12.1339 16.5879 12.2427 16.5879 12.7082V14.1438H18.5023V15.8666H16.5879V21.8963H14.482V15.8666H13.3334V14.1438Z" fill="white"/>
</svg>
