<svg width="45" height="46" viewBox="0 0 45 46" fill="none" xmlns="http://www.w3.org/2000/svg">
<g id="filter">
<path id="Vector" d="M30.8782 21.1736L30.8781 21.1736C29.3298 22.5499 28.4421 24.5269 28.4421 26.5988V36.8264C28.4421 37.0794 28.3156 37.316 28.1046 37.4569C28.1045 37.4569 28.1044 37.457 28.1043 37.4571L17.7338 44.3704L17.7336 44.3705C17.2322 44.7049 16.556 44.3434 16.556 43.7402V26.5988C16.556 24.5269 15.6683 22.5499 14.1199 21.1736L14.1199 21.1736L6.42156 14.3311C6.42155 14.3311 6.42154 14.3311 6.42153 14.3311C2.97625 11.2686 1 6.8673 1 2.25782C1 1.83918 1.33918 1.5 1.75782 1.5H43.2402C43.6584 1.5 43.9977 1.83906 43.9977 2.25782C43.9977 6.86731 42.0214 11.2686 38.5761 14.3311L30.8782 21.1736Z" stroke="#0C336F" stroke-width="2"/>
</g>
</svg>
