<svg width="181" height="56" viewBox="0 0 181 56" fill="none" xmlns="http://www.w3.org/2000/svg">
<path id="Vector" fill-rule="evenodd" clip-rule="evenodd" d="M173.219 0.604492H8.29235C6.35405 0.607889 4.49625 1.38085 3.12649 2.75378C1.75674 4.12671 0.98689 5.9875 0.98584 7.92794V47.695C0.987006 49.6355 1.75687 51.4963 3.12658 52.8694C4.49628 54.2424 6.35401 55.0156 8.29235 55.0194H173.219C175.158 55.0154 177.016 54.2419 178.385 52.8685C179.755 51.4951 180.525 49.634 180.526 47.6932V7.92616C180.524 5.98602 179.754 4.12575 178.384 2.75324C177.015 1.38073 175.157 0.608005 173.219 0.604492ZM178.44 47.695C178.439 49.0816 177.889 50.4112 176.91 51.3923C175.932 52.3734 174.604 52.9259 173.219 52.9286H8.29235C6.9076 52.9256 5.58057 52.3729 4.60224 51.3918C3.6239 50.4108 3.07411 49.0813 3.07341 47.695V7.92794C3.07458 6.54213 3.62463 5.21332 4.60297 4.23291C5.5813 3.2525 6.90807 2.70049 8.29235 2.69791H173.219C174.604 2.70002 175.931 3.25181 176.91 4.23226C177.889 5.21271 178.439 6.54179 178.44 7.92794V47.695ZM61.3744 17.0413C61.0077 17.0427 60.6429 16.9905 60.2913 16.8865C59.9913 16.8011 59.6987 16.6916 59.4163 16.5591L59.0627 17.643C59.416 17.8468 59.7993 17.9932 60.1984 18.0765C60.6067 18.1627 61.0226 18.2071 61.4398 18.2092C61.8355 18.208 62.2297 18.1605 62.6144 18.0677C62.993 17.9843 63.3533 17.8329 63.678 17.6209C63.9929 17.4114 64.2561 17.1331 64.4478 16.8069C64.655 16.431 64.7569 16.006 64.7426 15.577C64.7458 15.2972 64.6903 15.0199 64.5795 14.763C64.4742 14.523 64.3243 14.3053 64.1376 14.1215C63.9491 13.9362 63.7278 13.7877 63.4849 13.6835C63.2328 13.5724 62.9671 13.495 62.6948 13.4535V13.4137C63.177 13.3077 63.6137 13.0523 63.9427 12.6837C64.2967 12.2515 64.4692 11.6986 64.4239 11.1416C64.3787 10.5845 64.1192 10.0668 63.7001 9.69753C63.1263 9.26782 62.4194 9.05472 61.704 9.09585C61.242 9.08627 60.7813 9.15051 60.3394 9.28611C59.9771 9.4011 59.629 9.55694 59.3018 9.75062L59.6112 10.7548C59.8917 10.6239 60.1799 10.5102 60.4742 10.4142C60.7864 10.3133 61.1122 10.2611 61.4402 10.2594C61.8421 10.2375 62.2392 10.3563 62.5631 10.5956C62.7009 10.7046 62.8107 10.845 62.8835 11.005C62.9563 11.165 62.9899 11.3401 62.9816 11.5158C62.9849 11.7209 62.9357 11.9234 62.8389 12.1042C62.7409 12.2832 62.6052 12.4386 62.4411 12.5598C62.2588 12.69 62.0559 12.7887 61.841 12.8518C61.5973 12.9244 61.3441 12.9602 61.0898 12.958H60.5016V14.033H61.0898C61.3454 14.0334 61.6006 14.0556 61.8525 14.0994C62.0969 14.1378 62.333 14.2171 62.5512 14.3338C62.756 14.4456 62.931 14.6049 63.0616 14.7984C63.23 15.0925 63.2927 15.4356 63.2394 15.7704C63.186 16.1052 63.0197 16.4117 62.7681 16.6387C62.3647 16.9316 61.8715 17.0734 61.3744 17.0396V17.0413ZM67.5385 14.5462C67.2301 14.7277 66.9771 14.9901 66.8069 15.3051C66.6366 15.6201 66.5556 15.9757 66.5725 16.3335C66.5697 16.5898 66.6182 16.844 66.7153 17.0811C66.8088 17.3028 66.9466 17.503 67.1201 17.6695C67.2989 17.8373 67.5069 17.9707 67.7339 18.0633C67.9837 18.1597 68.2496 18.2077 68.5174 18.2049C68.8747 18.2247 69.2313 18.1549 69.5549 18.002C69.8785 17.849 70.159 17.6177 70.3707 17.3289H70.4096L70.513 18.0633H71.7813C71.7106 17.5607 71.6798 17.0533 71.6894 16.5458V14.2011C71.6894 12.4492 70.8595 11.5733 69.1997 11.5733C68.4369 11.5452 67.6818 11.7355 67.0233 12.1219L67.3101 13.0509C67.802 12.7316 68.378 12.5668 68.9641 12.5775C69.8418 12.5775 70.2806 12.9978 70.2806 13.8339V13.9534C69.3299 13.8973 68.3819 14.1017 67.5385 14.5444V14.5462ZM70.3181 14.8957V15.8778C70.3197 16.0555 70.28 16.2312 70.2024 16.391C70.1277 16.5481 70.0234 16.6893 69.8952 16.8069C69.7682 16.921 69.6215 17.0109 69.4622 17.0723C69.2971 17.1394 69.1206 17.1739 68.9425 17.174C68.6897 17.1823 68.4433 17.0937 68.2536 16.9263C68.1578 16.8281 68.0841 16.7107 68.0372 16.5818C67.9904 16.4529 67.9715 16.3154 67.9818 16.1786C67.9698 15.9761 68.0183 15.7745 68.1211 15.5997C68.2238 15.4248 68.3763 15.2845 68.5589 15.1965C69.1143 14.9616 69.7163 14.858 70.3181 14.8939V14.8957ZM78.4935 11.7016H74.4464V18.0633H75.8557V12.8651H78.4935V11.7016ZM80.5015 13.7941V20.6513H81.912V17.3023H81.9364C82.1257 17.6032 82.3938 17.8464 82.7115 18.0055C83.0292 18.1646 83.3844 18.2336 83.7385 18.2049C84.1259 18.2112 84.5097 18.1297 84.8611 17.9665C85.2126 17.8033 85.5227 17.5626 85.7681 17.2625C86.0273 16.9453 86.2246 16.5821 86.3497 16.1919C86.4927 15.743 86.5631 15.274 86.5583 14.8028C86.563 14.3553 86.4948 13.91 86.3563 13.4845C86.2351 13.1129 86.0472 12.7665 85.8017 12.4625C85.5744 12.1872 85.292 11.9626 84.9727 11.8033C84.4225 11.5485 83.7994 11.4994 83.2162 11.665C82.6329 11.8305 82.1283 12.1998 81.7936 12.7058H81.7667L81.6871 11.7016H80.4498C80.4657 12.0688 80.4794 12.4227 80.4873 12.7678C80.4953 13.1128 80.4997 13.4517 80.4997 13.7924L80.5015 13.7941ZM81.912 14.3869C81.9109 14.1576 81.956 13.9304 82.0446 13.7189C82.1261 13.5193 82.2433 13.3364 82.3906 13.1792C82.5338 13.0313 82.7043 12.9126 82.8927 12.8297C83.0767 12.7431 83.2775 12.6979 83.4808 12.697C83.7199 12.6928 83.956 12.7491 84.1675 12.8607C84.3722 12.9694 84.5504 13.1219 84.6894 13.3075C84.8406 13.51 84.9512 13.7398 85.0151 13.9844C85.0919 14.2684 85.1295 14.5616 85.1269 14.8559C85.1556 15.4338 84.999 16.0057 84.6802 16.4883C84.5397 16.6844 84.3527 16.8424 84.1361 16.9482C83.9195 17.054 83.6801 17.1042 83.4393 17.0944C83.2266 17.0978 83.0157 17.0555 82.8206 16.9705C82.6368 16.8913 82.472 16.7736 82.3372 16.6255C82.2002 16.4718 82.0942 16.293 82.0252 16.099C81.9482 15.8895 81.9103 15.6675 81.9134 15.4443V14.3869H81.912ZM90.4263 17.8553C90.4102 17.9568 90.3751 18.0544 90.3229 18.1429C90.134 18.543 89.863 18.8988 89.5275 19.187C89.2275 19.4526 88.8701 19.645 88.4832 19.7488L88.8222 20.9433C89.4058 20.8294 89.945 20.5516 90.3768 20.1425C90.7972 19.7134 91.1475 19.2208 91.4148 18.6826C91.8462 17.853 92.2189 16.9941 92.5302 16.1123L94.137 11.7016H92.6345L91.5629 15.2363C91.4772 15.515 91.4069 15.7628 91.3543 15.9752C91.3017 16.1875 91.2549 16.3644 91.212 16.506H91.185C91.1148 16.2538 91.0525 16.0238 90.9884 15.8115C90.9243 15.5991 90.8673 15.4177 90.8054 15.2496L89.6035 11.7016H88.0502L90.3481 17.5545C90.3868 17.6503 90.4125 17.7509 90.4245 17.8536L90.4263 17.8553ZM97.4761 17.1962C97.1739 17.1971 96.8731 17.1554 96.5825 17.0723C96.313 17.0013 96.0527 16.8989 95.807 16.767L95.4397 17.6961C95.7631 17.8754 96.1116 18.0051 96.4734 18.081C96.8549 18.1642 97.2443 18.2058 97.6347 18.2049C97.9673 18.2044 98.2991 18.1718 98.6255 18.1075C98.9508 18.0469 99.2652 17.9381 99.5583 17.7845C99.8371 17.6442 100.077 17.4376 100.258 17.1829C100.449 16.9068 100.545 16.5761 100.531 16.2406C100.535 16.03 100.486 15.8217 100.39 15.6345C100.295 15.459 100.167 15.3041 100.012 15.1788C99.8512 15.0499 99.6725 14.9456 99.4815 14.8692C99.2869 14.7902 99.0829 14.7366 98.8747 14.7099V14.6745C99.0419 14.6347 99.2047 14.5784 99.3608 14.5064C99.5211 14.4354 99.6685 14.3382 99.797 14.2188C99.9254 14.1054 100.031 13.9689 100.109 13.8162C100.191 13.6513 100.231 13.4693 100.228 13.2854C100.238 12.9987 100.163 12.7155 100.012 12.4713C99.8709 12.2549 99.6809 12.0746 99.4576 11.9449C99.2189 11.8025 98.9562 11.705 98.6825 11.6573C98.3963 11.5996 98.1052 11.5699 97.8132 11.5689C97.4473 11.5696 97.0824 11.6082 96.7244 11.6839C96.3416 11.7641 95.9734 11.9029 95.6329 12.0953L95.9974 13.0067C96.2248 12.8831 96.4631 12.7809 96.7094 12.7014C96.955 12.6195 97.2123 12.5777 97.4712 12.5775C97.7948 12.5598 98.116 12.6416 98.3917 12.812C98.496 12.8797 98.5814 12.973 98.6399 13.0829C98.6983 13.1928 98.7279 13.3157 98.7258 13.4402C98.7215 13.5719 98.6831 13.7003 98.6144 13.8127C98.5457 13.9252 98.449 14.0178 98.3338 14.0817C97.9981 14.2763 97.6123 14.3672 97.2251 14.3427H96.5737V15.2363H97.2366C97.4634 15.2345 97.6901 15.2493 97.9149 15.2806C98.1056 15.3052 98.2911 15.3604 98.4642 15.4443C98.6098 15.5151 98.7352 15.6216 98.8287 15.754C98.9196 15.8913 98.9649 16.0539 98.9582 16.2185C98.9571 16.3577 98.9215 16.4944 98.8545 16.6164C98.7876 16.7384 98.6914 16.8419 98.5747 16.9175C98.2454 17.1217 97.8609 17.2184 97.4743 17.1944L97.4761 17.1962ZM105.43 16.4529C105.696 15.9265 105.965 15.4044 106.235 14.878C106.382 14.5727 106.53 14.2763 106.677 13.9888C106.845 13.6574 106.992 13.3161 107.119 12.9668H107.185C107.158 13.449 107.135 13.9224 107.114 14.3958C107.092 14.8692 107.08 15.3381 107.08 15.807V18.0588H108.412V11.6971H106.586L105.019 14.7099C104.854 15.0417 104.691 15.3646 104.528 15.6832C104.366 16.0017 104.205 16.3291 104.04 16.6609L104.013 16.6343C104.04 16.1831 104.06 15.7495 104.079 15.3381C104.098 14.9267 104.106 14.4666 104.106 13.9534V11.7016H102.761V18.0588H104.587C104.883 17.5091 105.164 16.9732 105.43 16.4512L105.43 16.4529ZM112.539 18.0633H113.926V12.8651H115.857V11.7016H110.62V12.8651H112.539L112.539 18.0633ZM118.244 17.3023C118.524 17.5879 118.863 17.8097 119.237 17.9527C119.663 18.1089 120.113 18.1854 120.567 18.1783C121.296 18.1959 122.02 18.0634 122.696 17.789L122.475 16.8069C121.928 17.011 121.348 17.113 120.764 17.1077C120.243 17.1303 119.733 16.9548 119.335 16.6166C119.149 16.4365 119.002 16.2196 118.904 15.9797C118.807 15.7398 118.76 15.4821 118.767 15.2231H122.997C123.016 15.1252 123.029 15.0262 123.036 14.9267C123.044 14.8161 123.05 14.701 123.05 14.5816C123.056 14.1614 122.993 13.7431 122.865 13.3429C122.754 12.992 122.574 12.667 122.335 12.3873C122.106 12.123 121.821 11.913 121.501 11.7724C121.156 11.6275 120.784 11.5552 120.41 11.56C119.983 11.5525 119.56 11.6417 119.172 11.821C118.808 11.9898 118.485 12.2358 118.226 12.5421C117.957 12.8602 117.751 13.2265 117.619 13.6216C117.473 14.0578 117.401 14.5154 117.406 14.9753C117.4 15.4253 117.472 15.8728 117.619 16.2981C117.755 16.6719 117.968 17.0133 118.243 17.3006L118.244 17.3023ZM119.265 13.0111C119.394 12.861 119.554 12.7409 119.734 12.6592C119.914 12.5774 120.11 12.536 120.308 12.5377C120.506 12.527 120.703 12.564 120.884 12.6456C121.065 12.7272 121.223 12.851 121.346 13.0067C121.598 13.3571 121.724 13.7829 121.704 14.2144H118.769C118.794 13.7684 118.969 13.3439 119.264 13.0093L119.265 13.0111ZM132.79 17.8376C133.133 17.717 133.443 17.5151 133.692 17.2493C133.946 16.9557 134.076 16.5753 134.056 16.1875C134.066 15.9924 134.033 15.7976 133.958 15.6171C133.884 15.4365 133.77 15.2748 133.626 15.1434C133.307 14.8738 132.917 14.7005 132.503 14.6435L132.49 14.6037C132.655 14.5715 132.816 14.5164 132.966 14.44C133.115 14.3691 133.252 14.275 133.371 14.1613C133.488 14.0466 133.584 13.9118 133.653 13.7632C133.725 13.6002 133.76 13.4236 133.758 13.2455C133.775 12.9211 133.667 12.6025 133.455 12.3563C133.251 12.1343 132.995 11.9657 132.711 11.8653C132.411 11.7528 132.097 11.6828 131.778 11.6573C131.452 11.6264 131.159 11.6087 130.898 11.6087C130.487 11.6087 130.088 11.6219 129.696 11.6485C129.372 11.6674 129.05 11.7029 128.73 11.7547V18.0633C128.957 18.0809 129.236 18.0942 129.57 18.1119C129.905 18.1296 130.246 18.1429 130.596 18.1429C130.908 18.1429 131.263 18.1208 131.656 18.0898C132.044 18.0563 132.425 17.9709 132.789 17.8358L132.79 17.8376ZM130.088 12.6572C130.28 12.6395 130.429 12.6262 130.537 12.6218C130.665 12.6101 130.794 12.6056 130.923 12.6085C131.31 12.5839 131.696 12.6521 132.051 12.8076C132.166 12.8683 132.26 12.9605 132.324 13.0734C132.388 13.1862 132.419 13.315 132.412 13.4446C132.416 13.5874 132.372 13.7274 132.288 13.8428C132.196 13.9583 132.077 14.0482 131.94 14.1038C131.776 14.1755 131.603 14.2232 131.425 14.2454C131.221 14.2777 131.014 14.294 130.807 14.294H130.089V12.6572H130.088ZM130.937 17.1563C130.799 17.1592 130.661 17.1548 130.523 17.1431C130.408 17.1342 130.261 17.1254 130.088 17.1077V15.2098H130.832C131.277 15.1906 131.721 15.2613 132.138 15.4177C132.289 15.4748 132.417 15.5787 132.504 15.7141C132.591 15.8495 132.632 16.0092 132.621 16.1698C132.63 16.349 132.576 16.5257 132.469 16.6697C132.364 16.8013 132.227 16.9047 132.072 16.9705C131.897 17.0473 131.712 17.098 131.522 17.1209C131.328 17.1451 131.132 17.1563 130.936 17.1546L130.937 17.1563ZM35.5532 27.0484L31.5151 23.0358L19.3971 10.9893V43.1074L31.9853 30.5963L35.5532 27.0484ZM36.0985 26.5086L40.0607 22.5669L21.0905 11.5866L32.0997 22.5315L36.0985 26.5086ZM36.6438 27.0484L40.7505 31.1299L47.8025 27.0466L40.7505 22.9633L36.6438 27.0484ZM36.0985 27.5925L31.147 32.512L21.0913 42.5057L40.0602 31.5299L36.0985 27.5925ZM136.309 29.4771C135.67 29.4649 135.035 29.5964 134.453 29.862C133.88 30.1442 133.391 30.5712 133.034 31.1007H132.958L132.737 29.6673H131.452V44.8283H133.032V40.5238C133.029 39.9424 132.991 39.3618 132.918 38.7851H133.032C133.391 39.2909 133.879 39.6911 134.446 39.9442C135.032 40.2009 135.667 40.3291 136.307 40.3203C136.912 40.3498 137.516 40.2362 138.07 39.9887C138.623 39.7412 139.111 39.3668 139.493 38.8957C140.257 37.9446 140.64 36.61 140.642 34.8921C140.642 33.1815 140.266 31.8513 139.513 30.9016C139.13 30.4275 138.639 30.051 138.082 29.8031C137.525 29.5552 136.917 29.4429 136.309 29.4753L136.309 29.4771ZM138.239 37.9003C138.008 38.2485 137.691 38.5318 137.32 38.723C136.949 38.9143 136.535 39.0073 136.117 38.9931C135.039 38.9931 134.255 38.6775 133.766 38.0464C133.277 37.4152 133.033 36.3638 133.032 34.8921V34.5381C133.045 33.2463 133.29 32.304 133.766 31.7112C134.242 31.1228 135.013 30.8279 136.079 30.8264C136.497 30.8073 136.914 30.8928 137.29 31.0751C137.667 31.2574 137.992 31.5307 138.237 31.8705C138.748 32.565 139.003 33.5693 139.003 34.8743C139.062 35.9369 138.795 36.992 138.238 37.8986L138.239 37.9003ZM142.721 40.13H144.302V25.2788H142.721L142.721 40.13ZM150.897 29.4992C150.275 29.5 149.655 29.5803 149.054 29.7381C148.466 29.887 147.898 30.1068 147.364 30.3929L147.85 31.6095C148.761 31.1225 149.77 30.8474 150.802 30.8043C151.109 30.7761 151.419 30.814 151.71 30.9155C152.002 31.017 152.268 31.1797 152.492 31.3927C152.887 31.9126 153.075 32.5601 153.022 33.2109V33.8612L151.251 33.9188C147.88 34.0205 146.195 35.128 146.195 37.2412C146.168 37.6621 146.234 38.0837 146.386 38.477C146.538 38.8703 146.773 39.226 147.075 39.5195C147.755 40.0864 148.625 40.3727 149.509 40.3203C150.171 40.3411 150.831 40.2235 151.446 39.9752C152.062 39.6594 152.595 39.2033 153.003 38.6436H153.079L153.394 40.13H154.564V32.988C154.564 31.7669 154.264 30.8822 153.665 30.3248C153.066 29.7673 152.138 29.4975 150.894 29.4975L150.897 29.4992ZM152.982 35.9317C153.006 36.3485 152.944 36.7658 152.799 37.1572C152.654 37.5487 152.429 37.9057 152.139 38.2056C151.504 38.7723 150.67 39.0635 149.821 39.0152C149.298 39.0476 148.781 38.887 148.368 38.5639C148.19 38.3991 148.051 38.1963 147.961 37.9705C147.871 37.7446 147.833 37.5014 147.849 37.2589C147.829 36.9388 147.896 36.6192 148.042 36.3341C148.189 36.0489 148.41 35.809 148.682 35.6397C149.239 35.2946 150.145 35.0985 151.401 35.0513L152.982 34.9849V35.9317ZM160.988 36.9182C160.725 37.7057 160.552 38.2587 160.47 38.5861H160.394C160.149 37.5825 159.837 36.5966 159.46 35.6353L157.174 29.6673H155.48L159.688 40.192L159.108 41.6784C158.644 42.8994 157.869 43.51 156.784 43.51C156.391 43.5144 155.998 43.4773 155.613 43.3994V44.6646C156.081 44.7743 156.561 44.8292 157.042 44.8283C157.835 44.8514 158.61 44.5893 159.226 44.0895C159.947 43.3973 160.483 42.5347 160.783 41.5811L165.269 29.6673H163.573C162.112 33.7141 161.249 36.1304 160.985 36.9164L160.988 36.9182ZM109.777 29.8514H105.282C103.879 29.7782 102.494 30.2044 101.374 31.0547C100.947 31.4163 100.601 31.8649 100.36 32.3706C100.119 32.8764 99.989 33.4276 99.9777 33.9878C99.9799 34.4548 100.077 34.9166 100.262 35.3452C100.447 35.7738 100.717 36.1603 101.056 36.4815C101.395 36.8028 101.795 37.052 102.232 37.2142C102.67 37.3764 103.135 37.4482 103.601 37.4252C103.82 37.4252 104.06 37.4031 104.3 37.381C104.164 37.6454 104.089 37.9373 104.082 38.2348C104.112 38.7937 104.345 39.3223 104.737 39.7213C103.756 39.7876 101.92 39.8938 100.568 40.7255C100.078 40.9841 99.6655 41.3672 99.3708 41.8362C99.076 42.3053 98.9098 42.8438 98.8889 43.3976C98.8889 45.0167 100.416 46.5253 103.582 46.5253C107.335 46.5253 109.322 44.4505 109.322 42.3933C109.322 40.8803 108.45 40.1371 107.489 39.3275L106.703 38.717C106.54 38.6165 106.404 38.4785 106.305 38.3146C106.206 38.1508 106.148 37.9657 106.135 37.7747C106.157 37.5631 106.223 37.3584 106.329 37.1734C106.434 36.9884 106.576 36.8271 106.746 36.6997C107.663 35.9786 108.58 35.2132 108.58 33.594C108.572 33.0142 108.427 32.4445 108.158 31.9311C107.889 31.4177 107.503 30.975 107.031 30.6388H108.383L109.777 29.8514ZM107.857 43.2427C107.857 44.6009 106.743 45.6096 104.648 45.6096C102.313 45.6096 100.804 44.4903 100.804 42.9375C100.804 41.3846 102.201 40.8582 102.681 40.6857C103.426 40.4674 104.197 40.3484 104.973 40.3318C105.141 40.3262 105.309 40.3351 105.475 40.3583C107.137 41.5395 107.858 42.1279 107.858 43.2427H107.857ZM106.111 36.1998C105.708 36.58 105.179 36.7976 104.626 36.8103C102.748 36.8103 101.896 34.3815 101.896 32.9172C101.867 32.3383 102.036 31.7666 102.377 31.298C102.566 31.0754 102.8 30.8958 103.063 30.7714C103.327 30.647 103.614 30.5807 103.905 30.5769C105.717 30.5769 106.654 33.0233 106.654 34.5983C106.692 35.1829 106.497 35.7585 106.112 36.1998H106.111ZM93.6133 29.5417C90.299 29.5417 87.968 31.9882 87.968 34.8505C87.9671 35.5419 88.1053 36.2264 88.3744 36.8632C88.6434 37.5 89.0378 38.0761 89.534 38.557C90.0301 39.038 90.618 39.414 91.2624 39.6627C91.9069 39.9113 92.5947 40.0276 93.285 40.0044C93.9999 40.0325 94.7131 39.916 95.3821 39.6621C96.051 39.4082 96.6621 39.0221 97.1787 38.5266C97.6954 38.0312 98.1071 37.4366 98.3892 36.7784C98.6713 36.1202 98.8181 35.4119 98.8208 34.6957C98.8276 34.012 98.6971 33.334 98.4371 32.7018C98.1772 32.0697 97.793 31.4962 97.3074 31.0155C96.8219 30.5348 96.2448 30.1566 95.6104 29.9034C94.9761 29.6503 94.2974 29.5273 93.6147 29.5417H93.6133ZM96.0089 38.2392C95.7493 38.5833 95.4137 38.8627 95.0283 39.0553C94.6429 39.2479 94.2182 39.3487 93.7875 39.3496C91.1497 39.3496 90.0816 35.7884 90.0816 33.6295C90.0816 32.6872 90.2349 31.7271 91.0847 30.9618C91.6293 30.4883 92.3247 30.2247 93.0459 30.2185C95.7486 30.2185 96.6634 33.886 96.6634 35.8104C96.7146 36.6695 96.4853 37.522 96.0102 38.2392H96.0089ZM81.8038 29.5417C78.4895 29.5417 76.1584 31.9882 76.1584 34.8505C76.1575 35.542 76.2958 36.2265 76.5649 36.8634C76.834 37.5003 77.2284 38.0764 77.7247 38.5573C78.221 39.0383 78.8089 39.4143 79.4535 39.663C80.098 39.9116 80.786 40.0277 81.4763 40.0044C82.1912 40.0324 82.9043 39.916 83.5733 39.662C84.2422 39.4081 84.8532 39.0219 85.3698 38.5264C85.8864 38.031 86.298 37.4365 86.5801 36.7783C86.8622 36.1201 87.009 35.4118 87.0117 34.6957C87.0185 34.0119 86.8879 33.3337 86.6279 32.7014C86.3678 32.0691 85.9835 31.4956 85.4977 31.0148C85.0119 30.5341 84.4347 30.156 83.8001 29.9029C83.1655 29.6499 82.4867 29.527 81.8038 29.5417ZM84.2007 38.2392C83.9409 38.5833 83.6051 38.8626 83.2196 39.0553C82.834 39.2479 82.4092 39.3486 81.9783 39.3496C79.3401 39.3496 78.2729 35.7884 78.2729 33.6295C78.2729 32.6872 78.4254 31.7271 79.2752 30.9618C79.8197 30.4883 80.5151 30.2247 81.2364 30.2185C83.9391 30.2185 84.8547 33.886 84.8547 35.8104C84.9045 36.6698 84.6744 37.522 84.1989 38.2392H84.2007ZM68.9283 35.9741L72.2365 35.7972V39.332C71.3606 39.7198 70.4099 39.9086 69.4525 39.885C64.6768 39.885 61.6965 35.9963 61.6965 31.8687C61.6965 28.0243 64.3038 25.3876 67.7666 25.3876C68.6491 25.3807 69.5232 25.5608 70.3313 25.9161C71.1393 26.2714 71.8632 26.7939 72.4552 27.4492L71.9073 28.3295L72.6735 28.1526L74.4929 26.4184C73.6216 25.7884 72.6408 25.3263 71.6006 25.0558C70.5087 24.7537 69.3815 24.5989 68.2487 24.5957C62.6608 24.5957 59.3968 28.5507 59.3968 32.811C59.3968 36.3015 61.6947 40.7609 67.7445 40.7609C68.9573 40.7324 70.166 40.6081 71.3593 40.3893L74.4929 39.6638V36.9828C74.4929 36.7616 74.5132 36.1246 74.537 35.9255C74.5477 35.8551 74.5728 35.7877 74.6109 35.7275C74.6489 35.6673 74.699 35.6158 74.758 35.576L75.3272 35.0274H70.6787L68.9283 35.9741ZM113.081 37.9782V25.5424C113.085 25.4982 113.088 25.4495 113.093 25.4009C113.181 24.6355 113.402 24.5028 114.08 24.1046H110.945L109.302 24.8965H110.977V24.9098V24.901V38.4604C110.977 38.8984 110.888 38.9647 110.386 39.6239H114.264L115.075 39.1417C114.703 39.0975 114.33 39.0754 113.957 39.0311C113.23 38.9648 113.079 38.832 113.079 37.9782H113.081ZM116.888 34.5231L118.563 34.3904L123.675 32.3156C123.458 31.43 122.915 30.6591 122.154 30.1567C121.478 29.749 120.702 29.5376 119.912 29.5461C119.252 29.5397 118.597 29.6659 117.986 29.9175C117.375 30.1691 116.821 30.5408 116.356 31.0107C115.892 31.4806 115.526 32.0391 115.281 32.653C115.036 33.267 114.916 33.924 114.929 34.5851C114.912 35.4732 115.103 36.3529 115.489 37.1531C115.874 37.9532 116.442 38.6512 117.148 39.1904C117.991 39.7877 119.009 40.0867 120.042 40.0398C120.768 40.0545 121.488 39.9126 122.154 39.6239C122.393 39.5177 122.632 39.3629 122.871 39.2346L124.025 38.1419C123.217 38.6133 122.304 38.8749 121.37 38.9028C119.301 38.9028 117.429 37.2925 116.886 34.5231H116.888ZM116.799 33.2977C116.799 30.9441 118.43 30.2672 119.302 30.2672C120.478 30.2672 121.456 31.2715 121.456 32.143C121.456 32.4483 121.238 32.581 120.826 32.7314L116.866 34.4567C116.842 34.063 116.798 33.6693 116.798 33.2977H116.799ZM124.321 29.6965H124.797V31.1388H124.971V29.6965H125.445V29.5461H124.32V29.6965H124.321ZM126.412 30.8335H126.406L126.003 29.5461H125.729V31.1388H125.888V29.6833H125.893L126.339 31.1388H126.476L126.918 29.6833H126.926V31.1388H127.083V29.5461H126.807L126.412 30.8335Z" fill="#0C336F"/>
</svg>
