<svg width="39" height="48" viewBox="0 0 39 48" fill="none" xmlns="http://www.w3.org/2000/svg">
<g id="Vector">
<path d="M19.5 2.73806C18.8625 2.73806 18.375 2.25315 18.375 1.61903C18.375 0.984914 18.8625 0.5 19.5 0.5H23.25C23.8875 0.5 24.375 0.984914 24.375 1.61903C24.375 2.25315 23.8875 2.73806 23.25 2.73806H19.5Z" fill="#0C336F"/>
<path d="M15.7509 36.682C15.1134 36.682 14.6259 36.1971 14.6259 35.563C14.6259 34.9289 15.1134 34.444 15.7509 34.444H27.0009C27.6384 34.444 28.1259 34.9289 28.1259 35.563C28.1259 36.1971 27.6384 36.682 27.0009 36.682H15.7509Z" fill="#0C336F"/>
<path d="M1.01669e-06 29.5577C1.01669e-06 27.2451 1.61246 25.3427 3.78755 24.8205C4.20005 18.2556 8.62509 12.7725 14.6253 10.6837V5.34965C14.6253 4.71553 15.1128 4.23062 15.7503 4.23062H27.0003C27.6378 4.23062 28.1253 4.71553 28.1253 5.34965V28.1037C28.1253 28.7378 27.6378 29.2227 27.0003 29.2227H15.7503C15.1128 29.2227 14.6253 28.7378 14.6253 28.1037V16.9134C14.6253 16.2793 15.1128 15.7944 15.7503 15.7944C16.3878 15.7944 16.8753 16.2793 16.8753 16.9134V26.9843H25.8753V6.46911H16.8753V10.1246C17.8503 9.9381 18.8628 9.8262 19.8753 9.8262H21.3753C22.0128 9.8262 22.5003 10.3111 22.5003 10.9452C22.5003 11.5793 22.0128 12.0643 21.3753 12.0643H19.8753C12.5628 12.0643 6.56297 17.6967 6.03755 24.8583C8.17509 25.3805 9.75 27.2829 9.75 29.5582C9.75 31.8336 8.13755 33.7733 6 34.2582V41.5318H36C37.65 41.5318 39 42.8747 39 44.5159C39 46.1572 37.65 47.5 36 47.5H4.87543C4.23793 47.5 3.75043 47.0151 3.75043 46.381V34.2579C1.61289 33.773 0.000432622 31.8333 0.000432622 29.558L1.01669e-06 29.5577ZM6 45.2617H36C36.4125 45.2617 36.75 44.926 36.75 44.5157C36.75 44.1054 36.4125 43.7696 36 43.7696H6V45.2617ZM4.875 32.1692C6.33746 32.1692 7.5 31.0129 7.5 29.5582C7.5 28.1034 6.33755 26.9471 4.875 26.9471C3.41246 26.9471 2.25 28.1034 2.25 29.5582C2.25 31.0129 3.41246 32.1692 4.875 32.1692Z" fill="#0C336F"/>
</g>
</svg>
