<svg width="304" height="23" viewBox="0 0 304 23" fill="none" xmlns="http://www.w3.org/2000/svg">
<path fill-rule="evenodd" clip-rule="evenodd" d="M3.02384 8.65461H1.61964L0 1.36098L1.55175 1.10174L2.66005 6.80975L5.48268 1.17714H6.97327L3.02384 8.65461Z" fill="#9FA8B0"/>
<path fill-rule="evenodd" clip-rule="evenodd" d="M10.3259 6.27094H6.97757C6.88614 7.28511 7.35792 7.72762 8.15725 7.72762C8.82699 7.72762 9.41613 7.47927 10.0501 7.08011L10.0451 8.09427C9.42333 8.48275 8.70474 8.73095 7.86221 8.73095C6.40422 8.73095 5.4413 7.90011 5.73069 6.02251C5.99151 4.32869 7.16469 3.3039 8.5256 3.3039C10.0918 3.3039 10.6125 4.4799 10.3849 5.9581C10.3684 6.06594 10.3374 6.19538 10.3259 6.27094ZM8.35544 4.19941C7.8369 4.19941 7.35242 4.60918 7.12396 5.46175H9.19758C9.23583 4.65236 8.98174 4.19941 8.35544 4.19941ZM12.5083 5.63442L12.0479 8.62311H10.752L11.5547 3.41149H12.6565L12.6572 4.4582C13.0959 3.85404 13.6926 3.34707 14.5091 3.3039L14.5166 4.58772C13.6982 4.64173 12.962 5.07321 12.5083 5.63442ZM14.4996 8.62311L15.3026 3.41149H16.5986L15.7958 8.62311H14.4996ZM16.0961 2.53768C15.6642 2.53768 15.365 2.23548 15.4315 1.804C15.4996 1.36167 15.8935 1.04864 16.3255 1.04864C16.7468 1.04864 17.044 1.36167 16.976 1.804C16.9094 2.23548 16.5174 2.53768 16.0961 2.53768ZM20.1881 1.98731C19.7451 1.98731 19.4776 2.18147 19.4062 2.64571L19.2881 3.41149H20.2818L20.2809 4.46883H19.1252L18.4851 8.62311H17.2L17.84 4.46883H17.0839L17.2468 3.41149H18.0027L18.1407 2.51598C18.3186 1.36167 19.1195 0.929973 20.1888 0.929973C20.4157 0.929973 20.5852 0.951673 20.7117 0.97314L20.7214 2.03048C20.5949 2.00901 20.4039 1.98731 20.1881 1.98731ZM20.2021 8.62311L21.0051 3.41149H22.3011L21.4983 8.62311H20.2021ZM21.7985 2.53768C21.3666 2.53768 21.0676 2.23548 21.1341 1.804C21.2022 1.36167 21.5961 1.04864 22.028 1.04864C22.4493 1.04864 22.7468 1.36167 22.6787 1.804C22.6122 2.23548 22.2198 2.53768 21.7985 2.53768ZM27.3262 6.27094H23.9778C23.8865 7.28511 24.3582 7.72762 25.1575 7.72762C25.8272 7.72762 26.4162 7.47927 27.0504 7.08011L27.0452 8.09427C26.4237 8.48275 25.7049 8.73095 24.8623 8.73095C23.4043 8.73095 22.4416 7.90011 22.7307 6.02251C22.9918 4.32869 24.1649 3.3039 25.5259 3.3039C27.092 3.3039 27.6129 4.4799 27.3853 5.9581C27.3685 6.06594 27.3377 6.19538 27.3262 6.27094ZM25.3555 4.19941C24.8369 4.19941 24.3525 4.60918 24.1242 5.46175H26.1978C26.2361 4.65236 25.9818 4.19941 25.3555 4.19941ZM31.1653 8.62311L31.1685 7.90011C30.7329 8.34262 30.1657 8.73095 29.4419 8.73095C28.3509 8.73095 27.6011 7.92179 27.8719 6.16287C28.1711 4.22087 29.3733 3.35769 30.5829 3.35769C31.08 3.35769 31.4665 3.44403 31.7628 3.55184L32.1501 1.03778L33.4778 0.833008L32.2778 8.62311H31.1653ZM31.5983 4.62004C31.2976 4.46883 31.0607 4.39334 30.618 4.39334C29.9374 4.39334 29.3559 4.9437 29.1796 6.08762C29.0236 7.10155 29.3824 7.57643 29.9548 7.57643C30.4299 7.57643 30.8404 7.29618 31.2524 6.86442L31.5983 4.62004ZM36.2481 8.67219C35.6345 8.67219 35.1345 8.57387 34.6688 8.41067L35.5213 2.87762L36.5268 2.72212L36.158 5.11684C36.452 4.85532 36.8604 4.59382 37.3595 4.59382C38.1939 4.59382 38.7527 5.21516 38.5487 6.53896C38.3246 7.99363 37.4264 8.67219 36.2481 8.67219ZM36.9723 5.45994C36.645 5.45994 36.3164 5.68079 36.0257 5.97529L35.7499 7.76494C35.9434 7.83841 36.0773 7.87115 36.3554 7.87115C36.9771 7.87115 37.4115 7.49529 37.55 6.59617C37.6672 5.83601 37.4142 5.45994 36.9723 5.45994ZM40.8617 8.83562C40.3601 9.80821 39.8637 10.1106 39.1027 10.1106C38.9308 10.1106 38.8353 10.0941 38.7491 10.0697L38.7428 9.26056C38.8688 9.29331 39.0039 9.31769 39.1921 9.31769C39.4785 9.31769 39.7277 9.18709 39.8946 8.90096L40.0247 8.63944L39.1923 4.74909L40.2354 4.61845L40.7184 7.42972L42.0264 4.67564H43L40.8617 8.83562Z" fill="#9FA8B0"/>
<path d="M33.9813 13.842H32.1682C31.62 13.842 31.1984 14.0107 30.9454 14.5588L27.4878 22.4438H29.9334C29.9334 22.4438 30.3551 21.3897 30.4394 21.1367C30.6924 21.1367 33.0959 21.1367 33.4332 21.1367C33.5175 21.4319 33.7283 22.4017 33.7283 22.4017H35.921L33.9813 13.842ZM31.1141 19.3657C31.3249 18.8597 32.0417 16.9623 32.0417 16.9623C32.0417 17.0044 32.2525 16.4563 32.3369 16.1611L32.5055 16.9201C32.5055 16.9201 32.9694 18.9862 33.0537 19.4079H31.1141V19.3657Z" fill="#9FA8B0"/>
<path d="M27.6568 19.619C27.6568 21.39 26.0545 22.5706 23.5667 22.5706C22.5125 22.5706 21.5005 22.3598 20.9524 22.1068L21.2897 20.1672L21.5849 20.2937C22.3439 20.631 22.8499 20.7575 23.7775 20.7575C24.4522 20.7575 25.169 20.5045 25.169 19.9142C25.169 19.5347 24.8738 19.2817 23.9462 18.86C23.0607 18.4384 21.88 17.7637 21.88 16.5409C21.88 14.8543 23.5245 13.7158 25.8436 13.7158C26.7291 13.7158 27.4881 13.8845 27.9519 14.0953L27.6146 15.9506L27.4459 15.7819C27.0243 15.6133 26.4761 15.4446 25.675 15.4446C24.7895 15.4868 24.3678 15.8663 24.3678 16.2036C24.3678 16.5831 24.8738 16.8782 25.675 17.2577C27.0243 17.8902 27.6568 18.607 27.6568 19.619Z" fill="#9FA8B0"/>
<path d="M17.6637 13.8419L13.9953 22.4015H11.5075L9.39919 15.2333C10.9172 16.2032 12.1821 17.7211 12.646 18.7753L12.899 19.6607L15.1759 13.7997H17.6637V13.8419Z" fill="#9FA8B0"/>
<path d="M18.6329 13.7997H20.9521L19.4763 22.4015H17.1571L18.6329 13.7997Z" fill="#9FA8B0"/>
<path d="M7.07904 13.9267L7.12121 13.7581H10.7475C11.2535 13.7581 11.6329 13.9267 11.7594 14.4749L12.5606 18.2698C11.7594 16.2458 9.90415 14.6014 7.07904 13.9267Z" fill="#9FA8B0"/>
<path d="M101.658 11.7018C101.658 16.3018 97.9291 20.0309 93.3291 20.0309C88.7291 20.0309 85 16.3018 85 11.7018C85 7.10179 88.7291 3.37274 93.3291 3.37274C97.9291 3.37274 101.658 7.10179 101.658 11.7018Z" fill="#9FA8B0"/>
<path d="M111.798 11.702C111.798 16.302 108.069 20.0311 103.469 20.0311C98.8686 20.0311 95.1396 16.302 95.1396 11.702C95.1396 7.10199 98.8686 3.37293 103.469 3.37293C108.069 3.37293 111.798 7.10199 111.798 11.702Z" fill="#9FA8B0"/>
<path fill-rule="evenodd" clip-rule="evenodd" d="M98.3988 5.09278C96.417 6.61536 95.1396 9.00969 95.1396 11.702C95.1396 14.3943 96.417 16.7879 98.3988 18.3105C100.381 16.7879 101.658 14.3941 101.658 11.7018C101.658 9.00951 100.381 6.61536 98.3988 5.09278Z" fill="#9FA8B0"/>
<path fill-rule="evenodd" clip-rule="evenodd" d="M98.3988 18.3105C100.381 16.7879 101.658 14.3941 101.658 11.7018C101.658 9.00951 100.381 6.61536 98.3988 5.09278C96.417 6.61536 95.1396 9.00969 95.1396 11.702C95.1396 14.3943 96.417 16.7879 98.3988 18.3105Z" fill="#9FA8B0"/>
<path d="M121.39 14.8591C121.125 14.6905 120.84 14.5562 120.541 14.4597C120.242 14.3642 119.929 14.3162 119.615 14.3173C119.42 14.3156 119.226 14.3377 119.036 14.3833C118.876 14.4207 118.724 14.4853 118.585 14.5743C118.467 14.6507 118.368 14.7528 118.294 14.873C118.224 14.9917 118.188 15.1276 118.19 15.2654C118.185 15.3876 118.217 15.5086 118.28 15.6127C118.347 15.7114 118.436 15.7924 118.54 15.849C118.67 15.9202 118.809 15.9739 118.953 16.0087C119.135 16.0544 119.319 16.0904 119.504 16.1164L119.941 16.1754C120.195 16.2109 120.445 16.2667 120.69 16.3421C120.923 16.4121 121.143 16.5188 121.342 16.6582C121.532 16.7919 121.689 16.9663 121.803 17.1687C121.925 17.3983 121.984 17.6557 121.976 17.9154C121.982 18.213 121.912 18.5072 121.772 18.7698C121.637 19.0168 121.449 19.2304 121.221 19.3949C120.976 19.5702 120.703 19.7008 120.413 19.7804C120.096 19.8698 119.768 19.9142 119.438 19.9124C119.215 19.9113 118.993 19.8927 118.773 19.8568C118.538 19.8213 118.306 19.7679 118.079 19.6971C117.864 19.6252 117.656 19.5358 117.455 19.4296C117.257 19.3283 117.072 19.2036 116.904 19.0581L117.455 18.2418C117.574 18.3497 117.706 18.4429 117.847 18.5197C118.172 18.6978 118.523 18.8221 118.887 18.8879C119.071 18.9223 119.258 18.9396 119.445 18.94C119.639 18.9424 119.832 18.9227 120.021 18.8809C120.186 18.8449 120.344 18.7828 120.489 18.6969C120.615 18.6229 120.722 18.5221 120.804 18.4017C120.884 18.2837 120.925 18.1443 120.922 18.0023C120.927 17.7618 120.792 17.5407 120.576 17.4361C120.235 17.277 119.869 17.1784 119.494 17.1444L119.002 17.0749C118.766 17.0422 118.534 16.9875 118.308 16.9117C118.091 16.8402 117.889 16.7322 117.708 16.5921C117.53 16.4531 117.384 16.2764 117.282 16.0747C117.165 15.8422 117.105 15.5849 117.108 15.3245C117.103 15.0311 117.171 14.741 117.306 14.4806C117.436 14.2354 117.62 14.0229 117.843 13.8589C118.083 13.6847 118.352 13.5554 118.637 13.4768C118.953 13.387 119.28 13.3426 119.608 13.3448C120.033 13.3393 120.455 13.4015 120.86 13.529C121.227 13.6483 121.577 13.8165 121.9 14.0291L121.39 14.8591ZM124.84 15.3453C125.125 15.3427 125.407 15.3995 125.669 15.512C125.915 15.6187 126.135 15.7774 126.314 15.9774C126.499 16.1879 126.641 16.4319 126.733 16.6964C126.838 16.9942 126.89 17.3081 126.886 17.6237V17.9779H123.668C123.692 18.1548 123.748 18.3257 123.835 18.4815C123.91 18.6153 124.01 18.7332 124.13 18.8288C124.244 18.9184 124.375 18.9856 124.514 19.0268C124.659 19.0692 124.808 19.0903 124.958 19.0893C125.181 19.0876 125.402 19.0464 125.61 18.9677C125.828 18.8858 126.03 18.7685 126.21 18.6204L126.678 19.2977C126.433 19.513 126.146 19.675 125.835 19.7735C125.531 19.8652 125.214 19.9108 124.896 19.9089C124.59 19.9123 124.286 19.8568 124.001 19.7457C123.741 19.6414 123.505 19.4841 123.308 19.2838C123.107 19.0783 122.952 18.8336 122.85 18.5649C122.738 18.2651 122.683 17.9472 122.687 17.6271C122.684 17.3109 122.738 16.9967 122.847 16.6998C122.945 16.4316 123.096 16.1859 123.29 15.9774C123.486 15.7746 123.722 15.6159 123.984 15.512C124.256 15.4 124.546 15.3422 124.84 15.3418V15.3453ZM124.823 16.1893C124.669 16.1864 124.516 16.2123 124.372 16.2657C124.243 16.3133 124.124 16.3878 124.026 16.4845C123.928 16.5852 123.849 16.7029 123.793 16.8318C123.731 16.9686 123.687 17.1136 123.665 17.2624H125.912C125.885 16.9689 125.763 16.6921 125.565 16.4741C125.367 16.279 125.097 16.1747 124.82 16.1858L124.823 16.1893ZM129.847 15.3453C130.158 15.3424 130.467 15.4014 130.755 15.519C131.025 15.6336 131.262 15.811 131.449 16.0365L130.842 16.6825C130.703 16.5413 130.541 16.424 130.364 16.3352C130.187 16.2562 129.995 16.217 129.802 16.2206C129.628 16.2188 129.456 16.2531 129.296 16.3213C129.143 16.393 129.007 16.496 128.897 16.6234C128.779 16.75 128.687 16.8988 128.627 17.0611C128.497 17.426 128.497 17.8247 128.627 18.1898C128.687 18.3533 128.779 18.5032 128.897 18.6308C129.011 18.7528 129.149 18.8498 129.303 18.9156C129.463 18.9839 129.635 19.0182 129.809 19.0164C130.013 19.0168 130.215 18.9704 130.398 18.8809C130.574 18.7988 130.735 18.6899 130.877 18.558L131.463 19.2283C131.268 19.454 131.023 19.6312 130.749 19.7457C130.461 19.8637 130.154 19.9228 129.844 19.9194C129.523 19.924 129.205 19.865 128.907 19.7457C128.361 19.5268 127.933 19.0865 127.728 18.5336C127.511 17.9489 127.511 17.3054 127.728 16.7207C127.933 16.1739 128.357 15.7379 128.897 15.519C129.198 15.3973 129.519 15.337 129.844 15.3418L129.847 15.3453ZM136.313 17.9571C136.321 18.2626 136.262 18.5662 136.14 18.8462C136.036 19.0795 135.882 19.287 135.689 19.4539C135.501 19.6121 135.283 19.7302 135.048 19.8012C134.564 19.9496 134.047 19.9496 133.564 19.8012C133.328 19.7301 133.108 19.612 132.919 19.4539C132.725 19.2881 132.571 19.0803 132.468 18.8462C132.348 18.5655 132.29 18.2622 132.298 17.9571V15.4565H133.248V17.8876C133.244 18.0681 133.27 18.248 133.328 18.419C133.376 18.5503 133.453 18.6691 133.553 18.7663C133.652 18.8589 133.771 18.9266 133.9 18.9643C134.172 19.0458 134.461 19.0458 134.732 18.9643C134.862 18.9266 134.981 18.8589 135.079 18.7663C135.179 18.6691 135.256 18.5503 135.304 18.419C135.363 18.2482 135.391 18.0683 135.388 17.8876V15.4565H136.338L136.313 17.9571ZM139.763 15.3453C139.894 15.3448 140.026 15.3552 140.155 15.3766C140.274 15.3956 140.39 15.427 140.502 15.4704L140.276 16.4081C140.167 16.3531 140.05 16.3133 139.93 16.2901C139.808 16.2637 139.683 16.2496 139.559 16.2483C139.416 16.2466 139.275 16.2725 139.143 16.3247C139.018 16.3742 138.907 16.4514 138.817 16.5505C138.722 16.6577 138.65 16.7829 138.605 16.9186C138.552 17.0775 138.526 17.2443 138.529 17.4118V19.7978H137.565V15.4565H138.501V15.9462C138.635 15.7466 138.821 15.588 139.039 15.4878C139.266 15.388 139.512 15.3383 139.76 15.3418L139.763 15.3453ZM142.936 15.3453C143.221 15.3427 143.503 15.3995 143.764 15.512C144.01 15.6187 144.23 15.7774 144.409 15.9774C144.6 16.1865 144.748 16.4307 144.846 16.6964C144.951 16.9942 145.002 17.3081 144.999 17.6237V17.9779H141.76C141.784 18.1548 141.84 18.3257 141.927 18.4815C142.002 18.6153 142.102 18.7332 142.221 18.8288C142.336 18.9184 142.467 18.9856 142.606 19.0268C142.75 19.0692 142.9 19.0903 143.05 19.0893C143.273 19.0876 143.494 19.0464 143.702 18.9677C143.92 18.8858 144.122 18.7685 144.302 18.6204L144.773 19.2942C144.529 19.5096 144.242 19.6717 143.931 19.77C143.626 19.8617 143.309 19.9074 142.991 19.9055C142.685 19.9087 142.382 19.8533 142.097 19.7422C141.836 19.6378 141.6 19.4806 141.403 19.2803C141.203 19.0748 141.047 18.8301 140.946 18.5614C140.834 18.2617 140.778 17.9437 140.783 17.6237C140.779 17.3074 140.833 16.9933 140.942 16.6964C141.038 16.4287 141.186 16.183 141.379 15.974C141.574 15.7711 141.811 15.6124 142.072 15.5086C142.345 15.3973 142.637 15.3406 142.932 15.3418L142.936 15.3453ZM142.918 16.1893C142.765 16.1864 142.612 16.2123 142.468 16.2657C142.338 16.3133 142.22 16.3878 142.121 16.4845C142.023 16.5852 141.944 16.7029 141.889 16.8318C141.826 16.9686 141.783 17.1136 141.76 17.2624H144.014C143.987 16.9689 143.865 16.6921 143.667 16.4741C143.468 16.2771 143.195 16.1727 142.915 16.1858L142.918 16.1893ZM149.059 13.324C149.333 13.3231 149.606 13.3534 149.874 13.4143C150.127 13.472 150.373 13.5607 150.605 13.6783C150.827 13.7909 151.034 13.9322 151.219 14.0986C151.4 14.2595 151.555 14.4468 151.68 14.6542L150.827 15.2238C150.637 14.9429 150.381 14.7128 150.082 14.5535C149.761 14.3853 149.403 14.3016 149.041 14.3104C148.735 14.3072 148.431 14.3638 148.147 14.4771C147.886 14.5857 147.65 14.7464 147.454 14.9494C147.25 15.1586 147.091 15.4067 146.985 15.6788C146.759 16.2834 146.759 16.9496 146.985 17.5542C147.091 17.8263 147.25 18.0744 147.454 18.2835C147.65 18.4865 147.886 18.6472 148.147 18.7559C148.431 18.8692 148.735 18.9258 149.041 18.9226C149.746 18.938 150.41 18.5957 150.806 18.0126L151.638 18.6239C151.503 18.8225 151.342 19.0023 151.16 19.1588C150.981 19.3212 150.783 19.461 150.571 19.5756C150.344 19.6896 150.104 19.7759 149.856 19.8325C149.144 19.9903 148.401 19.9347 147.72 19.6728C146.926 19.3614 146.298 18.732 145.987 17.9362C145.662 17.0913 145.662 16.1555 145.987 15.3107C146.298 14.5149 146.926 13.8854 147.72 13.5741C148.146 13.4048 148.601 13.3199 149.059 13.324ZM154.641 15.3315C154.959 15.3278 155.275 15.3868 155.57 15.5051C155.845 15.6151 156.096 15.7778 156.309 15.9844C156.518 16.1901 156.684 16.4358 156.798 16.7068C157.033 17.2881 157.033 17.9384 156.798 18.5197C156.684 18.7907 156.518 19.0364 156.309 19.2421C156.096 19.4487 155.845 19.6114 155.57 19.7214C154.973 19.954 154.31 19.954 153.712 19.7214C153.436 19.6121 153.185 19.4492 152.973 19.2421C152.762 19.0412 152.592 18.8004 152.474 18.5336C152.239 17.9523 152.239 17.3021 152.474 16.7207C152.586 16.4501 152.751 16.2046 152.959 15.9983C153.172 15.7911 153.423 15.6283 153.698 15.519C153.998 15.3973 154.32 15.337 154.645 15.3418L154.641 15.3315ZM154.641 16.224C154.457 16.2221 154.274 16.2563 154.104 16.3247C153.942 16.3892 153.796 16.4862 153.674 16.6095C153.551 16.7352 153.454 16.8839 153.389 17.0471C153.251 17.4105 153.251 17.8125 153.389 18.1759C153.454 18.3391 153.551 18.4878 153.674 18.6135C153.796 18.7368 153.942 18.8337 154.104 18.8982C154.449 19.0338 154.833 19.0338 155.178 18.8982C155.506 18.7697 155.766 18.5124 155.9 18.1863C156.038 17.8229 156.038 17.421 155.9 17.0576C155.834 16.8938 155.736 16.7449 155.612 16.62C155.488 16.4968 155.341 16.4 155.178 16.3352C155.009 16.2672 154.827 16.233 154.645 16.2345L154.641 16.224ZM159.818 15.3315C160.348 15.3109 160.856 15.549 161.18 15.9705V13.2615H162.127V19.7943H161.18V19.2734C161.029 19.4668 160.837 19.6244 160.618 19.7353C160.369 19.8564 160.095 19.916 159.818 19.9089C159.239 19.9145 158.684 19.6823 158.282 19.2665C158.081 19.0554 157.924 18.8063 157.821 18.5336C157.598 17.9427 157.598 17.2907 157.821 16.6998C157.925 16.431 158.082 16.1854 158.282 15.9774C158.684 15.5616 159.239 15.3294 159.818 15.3349V15.3315ZM159.932 16.224C159.743 16.2211 159.557 16.259 159.384 16.3352C159.229 16.4051 159.089 16.5069 158.975 16.6339C158.862 16.7628 158.775 16.9126 158.718 17.0749C158.598 17.4237 158.598 17.8028 158.718 18.1516C158.775 18.3139 158.862 18.4637 158.975 18.5927C159.089 18.7196 159.229 18.8214 159.384 18.8913C159.73 19.0357 160.12 19.0357 160.466 18.8913C160.622 18.8237 160.763 18.7244 160.879 18.5996C160.991 18.4796 161.081 18.3394 161.142 18.1863C161.269 17.8291 161.269 17.4391 161.142 17.0819C161.082 16.9199 160.992 16.7713 160.875 16.6443C160.759 16.5197 160.618 16.4204 160.463 16.3525C160.296 16.2765 160.115 16.2362 159.932 16.2345V16.224ZM165.272 15.3315C165.556 15.3288 165.839 15.3855 166.1 15.4981C166.346 15.6047 166.566 15.7635 166.745 15.9636C166.93 16.1739 167.072 16.4181 167.165 16.6825C167.269 16.9803 167.321 17.2941 167.317 17.6097V17.9641H164.117C164.14 18.141 164.196 18.312 164.283 18.4676C164.358 18.6015 164.458 18.7195 164.578 18.8149C164.693 18.9046 164.823 18.9718 164.963 19.0129C165.107 19.0553 165.257 19.0763 165.407 19.0754C165.629 19.0737 165.85 19.0325 166.059 18.9538C166.276 18.8719 166.479 18.7545 166.658 18.6065L167.13 19.2803C166.885 19.4956 166.598 19.6575 166.287 19.7561C165.983 19.8479 165.666 19.8935 165.348 19.8916C165.042 19.8949 164.738 19.8394 164.453 19.7284C164.193 19.624 163.957 19.4667 163.76 19.2665C163.559 19.0609 163.404 18.8162 163.302 18.5475C163.19 18.2477 163.135 17.9298 163.139 17.6097C163.136 17.2935 163.19 16.9793 163.299 16.6825C163.397 16.4142 163.548 16.1686 163.742 15.9601C163.938 15.7572 164.174 15.5985 164.436 15.4947C164.702 15.3912 164.986 15.3394 165.272 15.3418V15.3315ZM167.771 19.7839V19.5756H167.858V19.5303H167.633V19.5756H167.73V19.7943L167.771 19.7839ZM168.205 19.7839V19.52H168.135L168.056 19.7005L167.976 19.52H167.907V19.7839H167.955V19.5859L168.028 19.7561H168.076L168.149 19.5859V19.7839H168.205ZM165.254 16.1754C165.1 16.1724 164.948 16.1983 164.803 16.2519C164.674 16.2994 164.556 16.374 164.457 16.4706C164.359 16.5713 164.28 16.689 164.224 16.8179C164.162 16.9548 164.119 17.0998 164.096 17.2486H166.343C166.318 16.9513 166.196 16.6705 165.996 16.4498C165.795 16.2645 165.527 16.1692 165.254 16.1858V16.1754Z" fill="#9FA8B0"/>
<path d="M123.896 10.2453H122.835V4.83424L120.917 9.59579H119.801L117.89 4.88634V10.2453H116.823V3.67078H118.449L120.359 8.36981L122.266 3.67078H123.892L123.896 10.2453ZM129.478 10.2453H128.497V9.70696C128.34 9.90753 128.141 10.0712 127.914 10.1863C127.656 10.3106 127.372 10.3713 127.085 10.3634C126.485 10.3698 125.908 10.1286 125.491 9.69651C125.283 9.48055 125.121 9.22559 125.012 8.94631C124.781 8.33312 124.781 7.65637 125.012 7.0431C125.121 6.76392 125.283 6.50898 125.491 6.29293C125.908 5.86082 126.485 5.61971 127.085 5.6261C127.372 5.6185 127.656 5.68046 127.914 5.8067C128.141 5.9234 128.34 6.08812 128.497 6.28946V5.74766H129.478V10.2453ZM127.2 6.55341C127.004 6.55007 126.81 6.58917 126.631 6.66802C126.47 6.74057 126.326 6.84583 126.208 6.97712C126.091 7.11129 126 7.26696 125.941 7.43555C125.816 7.79777 125.816 8.19165 125.941 8.55387C126.001 8.72294 126.092 8.87868 126.212 9.01234C126.33 9.14377 126.474 9.24904 126.635 9.32145C126.994 9.47194 127.399 9.47194 127.758 9.32145C127.919 9.25103 128.065 9.14824 128.185 9.01928C128.305 8.88698 128.4 8.7325 128.462 8.56431C128.593 8.19356 128.593 7.78891 128.462 7.41816C128.4 7.25005 128.305 7.0955 128.185 6.96322C128.064 6.83442 127.919 6.7316 127.758 6.66107C127.582 6.58587 127.391 6.54916 127.2 6.55341ZM133.975 6.87292C133.893 6.82569 133.808 6.7828 133.722 6.74443C133.609 6.69532 133.493 6.65355 133.375 6.61939C133.247 6.58077 133.118 6.54946 132.987 6.52563C132.849 6.50027 132.71 6.48747 132.571 6.48742C132.351 6.47488 132.133 6.52679 131.943 6.63676C131.805 6.71741 131.72 6.86568 131.721 7.02572C131.719 7.09637 131.739 7.16599 131.78 7.22373C131.821 7.27908 131.875 7.32422 131.936 7.35572C132.011 7.39368 132.09 7.42167 132.172 7.43905C132.262 7.45987 132.359 7.47837 132.463 7.49464L132.928 7.5641C133.341 7.60693 133.736 7.75518 134.075 7.99475C134.36 8.20664 134.523 8.54589 134.509 8.90117C134.511 9.10741 134.463 9.31116 134.37 9.49507C134.273 9.67267 134.136 9.82586 133.971 9.9431C133.778 10.0823 133.56 10.1847 133.33 10.2453C133.047 10.3207 132.756 10.357 132.463 10.3529C132.348 10.3529 132.213 10.346 132.061 10.3321C131.896 10.3164 131.733 10.2886 131.572 10.2487C131.392 10.2036 131.216 10.1444 131.045 10.0716C130.864 9.99429 130.693 9.89517 130.535 9.77642L130.99 9.0401C131.073 9.10501 131.161 9.16419 131.253 9.21722C131.356 9.27568 131.464 9.32456 131.575 9.36308C131.705 9.40774 131.839 9.44147 131.974 9.4638C132.138 9.49052 132.304 9.50328 132.47 9.502C132.733 9.51692 132.995 9.46556 133.233 9.35271C133.389 9.28062 133.49 9.12543 133.493 8.95325C133.49 8.82222 133.419 8.70212 133.306 8.63721C133.124 8.53608 132.923 8.47452 132.716 8.45665L132.248 8.39413C131.835 8.36056 131.44 8.20863 131.111 7.95655C130.853 7.73795 130.708 7.41298 130.719 7.07436C130.716 6.86548 130.761 6.65873 130.851 6.47006C130.937 6.29104 131.064 6.13508 131.222 6.01508C131.397 5.88515 131.594 5.78861 131.804 5.7303C132.056 5.65996 132.316 5.62605 132.578 5.62957C132.914 5.62765 133.25 5.66968 133.576 5.7546C133.866 5.82678 134.144 5.94397 134.398 6.10191L133.975 6.87292ZM138.628 6.63676H136.894V8.59558C136.894 8.72804 136.916 8.85955 136.96 8.98451C136.992 9.08117 137.044 9.17001 137.113 9.24505C137.175 9.31188 137.252 9.36308 137.338 9.39434C137.428 9.42704 137.523 9.44347 137.619 9.44299C137.779 9.44171 137.938 9.41109 138.087 9.35271C138.239 9.29577 138.386 9.2236 138.524 9.13739L138.912 9.92228C138.721 10.0502 138.516 10.1562 138.302 10.2383C138.057 10.3293 137.797 10.3741 137.536 10.3703C137.099 10.3958 136.67 10.2414 136.35 9.9431C136.035 9.57657 135.88 9.09847 135.92 8.61639V6.64023H135.029V5.74766H135.92V4.38622H136.905V5.74766H138.638L138.628 6.63676ZM141.644 5.6261C141.94 5.62237 142.232 5.68033 142.504 5.79628C142.759 5.90677 142.988 6.07149 143.173 6.27903C143.365 6.49754 143.514 6.75105 143.61 7.02572C143.718 7.33482 143.771 7.66044 143.766 7.98781V8.35242H140.427C140.452 8.53552 140.51 8.71233 140.601 8.87342C140.679 9.00748 140.783 9.12535 140.906 9.22073C141.025 9.31332 141.16 9.38286 141.304 9.4256C141.454 9.4701 141.61 9.49235 141.766 9.49164C142.002 9.49219 142.237 9.44985 142.459 9.36659C142.683 9.28556 142.893 9.16817 143.08 9.01928L143.569 9.7139C143.314 9.93688 143.017 10.1048 142.695 10.2071C142.379 10.3028 142.051 10.3507 141.721 10.3494C141.398 10.3607 141.077 10.3087 140.774 10.1966C140.501 10.0895 140.253 9.92627 140.046 9.71733C139.838 9.50392 139.676 9.24968 139.571 8.97064C139.455 8.65985 139.397 8.33009 139.401 7.99818C139.397 7.67033 139.452 7.34439 139.564 7.03616C139.666 6.75758 139.823 6.50243 140.025 6.28598C140.22 6.07842 140.456 5.91399 140.719 5.80323C141.012 5.68292 141.327 5.62383 141.644 5.62957V5.6261ZM141.627 6.50131C141.467 6.49837 141.309 6.52547 141.159 6.58119C141.029 6.63277 140.911 6.71082 140.812 6.81041C140.711 6.91091 140.629 7.02851 140.569 7.1577C140.501 7.30181 140.453 7.455 140.427 7.61267H142.757C142.726 7.30659 142.594 7.0195 142.383 6.79652C142.181 6.5997 141.908 6.49318 141.627 6.50131ZM147.174 5.6261C147.31 5.62524 147.446 5.6357 147.58 5.65736C147.699 5.67801 147.815 5.71059 147.927 5.7546L147.691 6.72706C147.581 6.67132 147.465 6.63044 147.344 6.6055C147.218 6.5788 147.089 6.56484 146.96 6.56383C146.812 6.56243 146.666 6.58956 146.53 6.6437C146.397 6.69438 146.279 6.77524 146.183 6.87987C146.084 6.99094 146.008 7.12086 145.961 7.26193C145.906 7.4263 145.879 7.59895 145.881 7.77249V10.2487H144.9V5.73377H145.871V6.24083C146.008 6.03907 146.197 5.87826 146.419 5.77544C146.654 5.67404 146.908 5.6243 147.164 5.62957L147.174 5.6261ZM150.527 5.6261C150.851 5.62279 151.171 5.68419 151.47 5.8067C151.755 5.92369 152.008 6.10846 152.205 6.34503L151.578 7.01535C151.432 6.87354 151.265 6.75625 151.082 6.66802C150.899 6.58576 150.7 6.5443 150.5 6.54646C150.32 6.54475 150.142 6.58022 149.976 6.65065C149.816 6.7185 149.672 6.81905 149.553 6.94586C149.432 7.07779 149.337 7.23243 149.276 7.40086C149.14 7.77919 149.14 8.19284 149.276 8.57125C149.337 8.73968 149.432 8.89424 149.553 9.02622C149.672 9.15294 149.816 9.25351 149.976 9.32145C150.142 9.39187 150.32 9.42736 150.5 9.4256C150.708 9.4276 150.914 9.38246 151.103 9.29362C151.285 9.20454 151.453 9.08731 151.599 8.94631L152.202 9.62362C152 9.85864 151.746 10.043 151.46 10.1619C151.162 10.2845 150.842 10.3459 150.52 10.3425C150.188 10.3472 149.858 10.2858 149.55 10.1619C148.985 9.93656 148.541 9.48422 148.326 8.91505C148.1 8.30912 148.1 7.6421 148.326 7.03616C148.541 6.46705 148.985 6.01468 149.55 5.78933C149.858 5.673 150.187 5.61871 150.517 5.62957L150.527 5.6261ZM157.417 10.2453H156.435V9.70696C156.279 9.90753 156.08 10.0712 155.853 10.1863C155.595 10.3106 155.311 10.3713 155.024 10.3634C154.424 10.3698 153.847 10.1286 153.429 9.69651C153.222 9.48055 153.059 9.22559 152.951 8.94631C152.719 8.33312 152.719 7.65637 152.951 7.0431C153.059 6.76392 153.222 6.50898 153.429 6.29293C153.847 5.86082 154.424 5.61971 155.024 5.6261C155.311 5.6185 155.595 5.68046 155.853 5.8067C156.08 5.9234 156.279 6.08812 156.435 6.28946V5.74766H157.417V10.2453ZM155.142 6.55341C154.947 6.55007 154.753 6.58917 154.574 6.66802C154.413 6.74057 154.269 6.84583 154.151 6.97712C154.033 7.11129 153.942 7.26696 153.884 7.43555C153.758 7.79777 153.758 8.19165 153.884 8.55387C153.942 8.72246 154.033 8.87813 154.151 9.01234C154.269 9.14369 154.413 9.24896 154.574 9.32145C154.933 9.47154 155.337 9.47154 155.697 9.32145C155.858 9.25095 156.003 9.14816 156.123 9.01928C156.245 8.8873 156.339 8.73274 156.401 8.56431C156.532 8.19364 156.532 7.78883 156.401 7.41816C156.339 7.24981 156.245 7.09518 156.123 6.96322C156.003 6.83442 155.858 6.7316 155.697 6.66107C155.523 6.58693 155.335 6.55025 155.146 6.55341H155.142ZM161.137 5.62957C161.273 5.62872 161.408 5.63917 161.543 5.66083C161.661 5.68149 161.777 5.71407 161.889 5.75808L161.654 6.73053C161.544 6.6748 161.427 6.63392 161.307 6.60897C161.18 6.58232 161.051 6.56836 160.922 6.5673C160.775 6.56582 160.629 6.59294 160.492 6.64718C160.36 6.69785 160.241 6.77872 160.145 6.88335C160.046 6.99441 159.971 7.12437 159.923 7.26536C159.868 7.4298 159.841 7.60246 159.844 7.77592V10.2522H158.862V5.73724H159.844V6.2443C159.981 6.04066 160.172 5.87855 160.395 5.77544C160.63 5.67414 160.884 5.62441 161.14 5.62957H161.137ZM164.355 5.62957C164.641 5.62197 164.926 5.68393 165.183 5.81017C165.41 5.92697 165.609 6.09167 165.766 6.29293V3.48323H166.747V10.2453H165.766V9.70696C165.609 9.90753 165.41 10.0712 165.183 10.1863C164.925 10.3106 164.641 10.3713 164.355 10.3634C163.754 10.3698 163.177 10.1286 162.76 9.69651C162.549 9.48135 162.382 9.22639 162.271 8.94631C162.039 8.33312 162.039 7.65637 162.271 7.0431C162.379 6.76392 162.542 6.50898 162.749 6.29293C163.167 5.86082 163.744 5.61971 164.344 5.6261L164.355 5.62957ZM167.891 9.83193C167.93 9.83105 167.969 9.83815 168.006 9.85282C168.04 9.86741 168.072 9.88863 168.099 9.91534C168.126 9.9411 168.147 9.9718 168.162 10.0056C168.192 10.0766 168.192 10.1569 168.162 10.2279C168.147 10.2617 168.125 10.2923 168.099 10.3182C168.072 10.3447 168.04 10.3659 168.006 10.3807C167.97 10.3968 167.931 10.4051 167.891 10.405C167.774 10.4067 167.668 10.3383 167.621 10.2314C167.59 10.1604 167.59 10.08 167.621 10.0091C167.65 9.93943 167.706 9.8844 167.777 9.85625C167.814 9.84014 167.854 9.83185 167.895 9.83193H167.891ZM167.891 10.3425C167.921 10.3429 167.95 10.337 167.978 10.3252C168.004 10.3134 168.027 10.2969 168.047 10.2765C168.133 10.1887 168.133 10.0483 168.047 9.96048C168.027 9.93999 168.004 9.92348 167.978 9.91183C167.949 9.90593 167.92 9.90593 167.891 9.91183C167.862 9.90625 167.833 9.90625 167.804 9.91183C167.742 9.94222 167.697 10 167.684 10.0682C167.67 10.1364 167.689 10.2071 167.735 10.2591C167.755 10.2796 167.778 10.2961 167.804 10.3078C167.832 10.3246 167.863 10.3353 167.895 10.339L167.891 10.3425ZM167.891 9.99517C167.92 9.99358 167.948 10.0022 167.971 10.0195C167.989 10.0348 168 10.0579 167.999 10.082C168 10.1027 167.992 10.1229 167.978 10.1376C167.961 10.1536 167.939 10.1634 167.915 10.1654L168.002 10.2661H167.933L167.853 10.1654H167.829V10.2661H167.773V9.99868L167.891 9.99517ZM167.825 10.0438V10.1133H167.891C167.902 10.1165 167.914 10.1165 167.926 10.1133C167.93 10.1045 167.93 10.0942 167.926 10.0855C167.931 10.0769 167.931 10.0663 167.926 10.0577C167.914 10.0546 167.902 10.0546 167.891 10.0577L167.825 10.0438ZM164.455 6.57077C164.26 6.56744 164.066 6.60653 163.886 6.68538C163.726 6.75793 163.582 6.8632 163.463 6.99449C163.346 7.12867 163.255 7.28434 163.196 7.45293C163.071 7.81515 163.071 8.20903 163.196 8.57125C163.255 8.73984 163.346 8.89551 163.463 9.02973C163.581 9.16108 163.726 9.26634 163.886 9.33876C164.246 9.48892 164.65 9.48892 165.01 9.33876C165.171 9.26834 165.316 9.16554 165.436 9.03667C165.57 8.8987 165.672 8.73418 165.738 8.55387C165.869 8.18319 165.869 7.77847 165.738 7.40779C165.676 7.23936 165.582 7.08481 165.461 6.95281C165.34 6.82401 165.195 6.72118 165.034 6.65065C164.857 6.57911 164.667 6.54597 164.476 6.55341L164.455 6.57077Z" fill="#9FA8B0"/>
<path fill-rule="evenodd" clip-rule="evenodd" d="M210.205 18.4427L215.591 18.4479L215.597 13.1704L210.21 13.1653L210.205 18.4427Z" fill="#9FA8B0"/>
<path fill-rule="evenodd" clip-rule="evenodd" d="M210.226 4.94524L210.219 11.5148L211.643 11.5162C215.39 11.52 217.288 13.3845 217.284 17.0571L217.283 18.4518L223.986 18.4584L224 4.95901L210.226 4.94524ZM221.149 7.74697L221.141 15.6651L220.042 15.6641C219.572 11.7479 217.064 9.28501 213.069 8.81674L213.07 7.73896L221.149 7.74697Z" fill="#9FA8B0"/>
<path d="M228.882 18.4634H226.628V10.4933H234.745V18.4634H232.49V12.0416H228.882V18.4634Z" fill="#9FA8B0"/>
<path d="M235.838 12.679V20.57H237.916V17.8715C238.612 18.6233 239.747 18.6801 240.02 18.6801C242.002 18.6801 243.218 17.4158 243.218 15.5827C243.218 13.67 242.015 12.4631 240.061 12.4631C239.569 12.4631 238.612 12.5429 237.82 13.3742H237.779L237.792 12.679H235.838ZM237.82 15.5597C237.82 13.9433 238.818 13.6247 239.446 13.6247C240.061 13.6247 241.059 13.9433 241.059 15.5597C241.059 16.5622 240.635 17.5189 239.446 17.5189C238.23 17.5189 237.82 16.5622 237.82 15.5597Z" fill="#9FA8B0"/>
<path d="M248.369 17.7693C247.604 18.4861 246.867 18.6801 246.047 18.6801C243.805 18.6801 243.723 16.9948 243.723 16.3004V12.679H245.8V16.0267C245.8 17.1771 246.198 17.5189 246.962 17.5189C248.274 17.5189 248.369 16.3459 248.369 15.9246V12.679H250.447V18.4634H248.369V17.7693Z" fill="#9FA8B0"/>
<path d="M253.427 16.0267H254.698C255.681 16.0267 255.886 16.323 255.886 16.7103C255.886 16.9606 255.749 17.3023 254.723 17.3023H253.427V16.0267ZM251.349 12.679V18.4634H255.476C256.979 18.4634 258.018 18.1674 258.018 16.9833C258.018 16.0724 257.511 15.674 256.364 15.4692V15.4349C257.116 15.3324 257.772 14.8654 257.772 14.08C257.772 12.679 256.132 12.679 255.49 12.679H251.349ZM253.427 13.841H254.546C255.134 13.841 255.639 13.9321 255.639 14.4098C255.639 14.9341 254.847 14.9454 254.505 14.9454H253.427V13.841Z" fill="#9FA8B0"/>
<path d="M260.641 14.5467C260.641 13.6927 261.543 13.6247 261.912 13.6247C262.145 13.6247 263.005 13.6361 263.033 14.3874C263.033 14.4444 263.033 14.4899 263.033 14.5467C262.992 15.116 262.445 15.0022 260.915 15.1957C259.657 15.3664 258.332 15.685 258.332 17.0062C258.332 17.4845 258.537 18.6801 260.751 18.6801C261.599 18.6801 262.528 18.4634 263.074 17.8944H263.116L263.293 18.4634H265.479V18.3612C265.083 18.2813 265.056 17.8944 265.069 17.268L265.11 14.6261C265.124 13.9548 265.056 12.4631 261.926 12.4631C261.174 12.4631 258.756 12.5312 258.66 14.5467H260.641ZM263.047 16.0724C263.047 17.2339 262.035 17.5189 261.53 17.5189C261.147 17.5189 260.464 17.3932 260.464 16.847C260.464 16.1976 261.242 16.0724 261.68 16.0154C262.487 15.9015 262.418 15.9359 263.047 15.7079V16.0724Z" fill="#9FA8B0"/>
<path d="M265.343 13.841V12.679H272.011V13.841H269.715V18.4634H267.639V13.841H265.343Z" fill="#9FA8B0"/>
<path d="M274.663 12.0416H279.842V10.4933H272.407V18.4634H276.972C279.186 18.4634 280.607 17.6896 280.607 16.0609C280.607 13.5109 277.764 13.4536 276.972 13.4536H274.663V12.0416ZM274.663 15.0022H276.534C277.082 15.0022 278.175 15.0594 278.175 16.0154C278.175 16.7671 277.382 16.9149 276.494 16.9149H274.663V15.0022Z" fill="#9FA8B0"/>
<path d="M283.313 14.5467C283.313 13.6927 284.216 13.6247 284.584 13.6247C284.816 13.6247 285.678 13.6361 285.705 14.3874C285.705 14.4444 285.705 14.4899 285.705 14.5467C285.664 15.116 285.118 15.0022 283.586 15.1957C282.329 15.3664 281.004 15.685 281.004 17.0062C281.004 17.4845 281.208 18.6801 283.422 18.6801C284.27 18.6801 285.199 18.4634 285.746 17.8944H285.786L285.964 18.4634H288.15V18.3612C287.756 18.2813 287.727 17.8944 287.741 17.268L287.782 14.6261C287.796 13.9548 287.727 12.4631 284.597 12.4631C283.846 12.4631 281.427 12.5312 281.331 14.5467H283.313ZM285.718 16.0724C285.718 17.2339 284.707 17.5189 284.202 17.5189C283.819 17.5189 283.136 17.3932 283.136 16.847C283.136 16.1976 283.914 16.0724 284.351 16.0154C285.158 15.9015 285.089 15.9359 285.718 15.7079V16.0724Z" fill="#9FA8B0"/>
<path d="M290.747 18.4634H288.67V12.679H290.747V14.8541H293.248V12.679H295.326V18.4634H293.248V16.0154H290.747V18.4634Z" fill="#9FA8B0"/>
<path d="M300.573 12.679H302.882L300.026 15.3888L303.019 18.4634H300.586L298.345 15.9359H298.305V18.4634H296.228V12.679H298.305V15.0022H298.345L300.573 12.679Z" fill="#9FA8B0"/>
</svg>
