<svg width="20" height="21" viewBox="0 0 20 21" fill="none" xmlns="http://www.w3.org/2000/svg">
<g id="social/telega">
<g id="Telega">
<path d="M1.22615 9.79708C1.22615 9.79708 10.0717 5.95547 13.1395 4.60278C14.3155 4.06171 18.3036 2.33028 18.3036 2.33028C18.3036 2.33028 20.1443 1.57277 19.9909 3.41242C19.9398 4.16992 19.5307 6.82118 19.1217 9.68887C18.5081 13.7469 17.8435 18.1837 17.8435 18.1837C17.8435 18.1837 17.7412 19.4282 16.872 19.6446C16.0028 19.861 14.5711 18.8871 14.3155 18.6707C14.111 18.5084 10.4807 16.0735 9.15132 14.8832C8.79341 14.5585 8.38437 13.9092 9.20246 13.1517C11.0431 11.3662 13.2417 9.1478 14.5711 7.74101C15.1847 7.09172 15.7982 5.57671 13.2417 7.41636C9.6115 10.0676 6.03238 12.5566 6.03238 12.5566C6.03238 12.5566 5.2143 13.0976 3.6804 12.6107C2.14649 12.1237 0.356936 11.4744 0.356936 11.4744C0.356936 11.4744 -0.870188 10.6628 1.22615 9.79708Z" fill="#35AEE2"/>
<path d="M1.22615 9.79708C1.22615 9.79708 10.0717 5.95547 13.1395 4.60278C14.3155 4.06171 18.3036 2.33028 18.3036 2.33028C18.3036 2.33028 20.1443 1.57277 19.9909 3.41242C19.9398 4.16992 19.5307 6.82118 19.1217 9.68887C18.5081 13.7469 17.8435 18.1837 17.8435 18.1837C17.8435 18.1837 17.7412 19.4282 16.872 19.6446C16.0028 19.861 14.5711 18.8871 14.3155 18.6707C14.111 18.5084 10.4807 16.0735 9.15132 14.8832C8.79341 14.5585 8.38437 13.9092 9.20246 13.1517C11.0431 11.3662 13.2417 9.1478 14.5711 7.74101C15.1847 7.09172 15.7982 5.57671 13.2417 7.41636C9.6115 10.0676 6.03238 12.5566 6.03238 12.5566C6.03238 12.5566 5.2143 13.0976 3.6804 12.6107C2.14649 12.1237 0.356936 11.4744 0.356936 11.4744C0.356936 11.4744 -0.870188 10.6628 1.22615 9.79708Z" fill="white"/>
</g>
</g>
</svg>
