<svg width="20" height="21" viewBox="0 0 20 21" fill="none" xmlns="http://www.w3.org/2000/svg">
<g id="social/viber">
<g id="Viber">
<path d="M17.2583 2.27649C16.767 1.81927 14.7814 0.361328 10.359 0.341532C10.359 0.341532 5.14433 0.0231331 2.60208 2.38242C1.1871 3.81408 0.689195 5.90827 0.6365 8.50637C0.584408 11.1044 0.515961 15.9715 5.15462 17.2918L5.15887 17.2929L5.15644 19.3069C5.15644 19.3069 5.12737 20.1227 5.65738 20.2885C6.29947 20.4901 6.67621 19.8701 7.28921 19.2022C7.62599 18.8359 8.08996 18.2972 8.4401 17.8855C11.6129 18.1542 14.0528 17.5377 14.3296 17.4468C14.9704 17.2361 18.5951 16.7669 19.1845 11.8998C19.7927 6.88138 18.8895 3.70815 17.2583 2.27649ZM17.8065 11.5371C17.308 15.6016 14.369 15.8583 13.8275 16.0343C13.5967 16.1091 11.453 16.6484 8.7587 16.47L5.83791 19.6684L5.83488 15.9828L5.81187 15.9769C1.88794 14.8744 2.01998 10.7411 2.0642 8.57154C2.10842 6.40198 2.51124 4.62442 3.70876 3.42924C5.85851 1.45895 10.2882 1.75344 10.2882 1.75344C14.0291 1.77019 15.8221 2.90913 16.2376 3.29098C17.6175 4.48681 18.3207 7.34703 17.8065 11.5371Z" fill="#AA5ABE"/>
<path d="M17.2583 2.27649C16.767 1.81927 14.7814 0.361328 10.359 0.341532C10.359 0.341532 5.14433 0.0231331 2.60208 2.38242C1.1871 3.81408 0.689195 5.90827 0.6365 8.50637C0.584408 11.1044 0.515961 15.9715 5.15462 17.2918L5.15887 17.2929L5.15644 19.3069C5.15644 19.3069 5.12737 20.1227 5.65738 20.2885C6.29947 20.4901 6.67621 19.8701 7.28921 19.2022C7.62599 18.8359 8.08996 18.2972 8.4401 17.8855C11.6129 18.1542 14.0528 17.5377 14.3296 17.4468C14.9704 17.2361 18.5951 16.7669 19.1845 11.8998C19.7927 6.88138 18.8895 3.70815 17.2583 2.27649ZM17.8065 11.5371C17.308 15.6016 14.369 15.8583 13.8275 16.0343C13.5967 16.1091 11.453 16.6484 8.7587 16.47L5.83791 19.6684L5.83488 15.9828L5.81187 15.9769C1.88794 14.8744 2.01998 10.7411 2.0642 8.57154C2.10842 6.40198 2.51124 4.62442 3.70876 3.42924C5.85851 1.45895 10.2882 1.75344 10.2882 1.75344C14.0291 1.77019 15.8221 2.90913 16.2376 3.29098C17.6175 4.48681 18.3207 7.34703 17.8065 11.5371Z" fill="white"/>
<path d="M14.429 12.1434C14.4272 12.1416 13.8342 11.6419 13.5446 11.4264C13.2714 11.2235 12.8359 10.9506 12.5924 10.8118C12.1557 10.5658 11.7093 10.7202 11.5251 10.962L11.1423 11.4486C10.9461 11.6952 10.6438 11.6539 10.5645 11.6377C9.99871 11.4976 9.39723 11.1481 8.78176 10.5592C8.15911 9.96492 7.78231 9.34426 7.64788 8.69909L7.63817 8.65655C7.6018 8.3914 7.64664 8.26872 7.75627 8.08802L7.77687 8.07122C8.03551 7.83363 8.51469 7.54457 8.57885 7.26921C8.76723 6.79103 7.94952 5.79395 7.8326 5.61798C7.8326 5.61798 7.23779 4.83992 7.0264 4.69146C6.79801 4.50356 6.44428 4.39641 6.08752 4.61309L6.06933 4.62624C5.04445 5.31151 4.67313 5.70533 4.77428 6.2931L4.82697 6.52947C5.34669 8.14842 6.35038 9.87452 7.84714 11.4115C9.32752 12.9293 10.9291 13.8384 12.5076 14.468C12.9177 14.6027 13.3429 14.4866 13.779 14.1185L13.7863 14.1131C14.1207 13.8043 14.3854 13.4739 14.5829 13.1202L14.5847 13.113C14.7767 12.7389 14.7119 12.3846 14.429 12.1434Z" fill="#AA5ABE"/>
<path d="M14.429 12.1434C14.4272 12.1416 13.8342 11.6419 13.5446 11.4264C13.2714 11.2235 12.8359 10.9506 12.5924 10.8118C12.1557 10.5658 11.7093 10.7202 11.5251 10.962L11.1423 11.4486C10.9461 11.6952 10.6438 11.6539 10.5645 11.6377C9.99871 11.4976 9.39723 11.1481 8.78176 10.5592C8.15911 9.96492 7.78231 9.34426 7.64788 8.69909L7.63817 8.65655C7.6018 8.3914 7.64664 8.26872 7.75627 8.08802L7.77687 8.07122C8.03551 7.83363 8.51469 7.54457 8.57885 7.26921C8.76723 6.79103 7.94952 5.79395 7.8326 5.61798C7.8326 5.61798 7.23779 4.83992 7.0264 4.69146C6.79801 4.50356 6.44428 4.39641 6.08752 4.61309L6.06933 4.62624C5.04445 5.31151 4.67313 5.70533 4.77428 6.2931L4.82697 6.52947C5.34669 8.14842 6.35038 9.87452 7.84714 11.4115C9.32752 12.9293 10.9291 13.8384 12.5076 14.468C12.9177 14.6027 13.3429 14.4866 13.779 14.1185L13.7863 14.1131C14.1207 13.8043 14.3854 13.4739 14.5829 13.1202L14.5847 13.113C14.7767 12.7389 14.7119 12.3846 14.429 12.1434Z" fill="white"/>
<path d="M11.9717 8.59823C11.9093 8.59823 11.8572 8.54859 11.8541 8.48515C11.8335 8.06559 11.7191 7.7442 11.5137 7.52934C11.3096 7.31626 11.0037 7.19719 10.6051 7.17562C10.5403 7.17201 10.4901 7.11577 10.4937 7.04994C10.4973 6.98411 10.5524 6.93386 10.6179 6.93685C11.0782 6.96198 11.4362 7.10562 11.6833 7.36357C11.9292 7.62091 12.0661 7.99377 12.0898 8.47317C12.0928 8.539 12.0425 8.59468 11.9777 8.59823H11.9717Z" fill="#AA5ABE"/>
<path d="M11.9717 8.59823C11.9093 8.59823 11.8572 8.54859 11.8541 8.48515C11.8335 8.06559 11.7191 7.7442 11.5137 7.52934C11.3096 7.31626 11.0037 7.19719 10.6051 7.17562C10.5403 7.17201 10.4901 7.11577 10.4937 7.04994C10.4973 6.98411 10.5524 6.93386 10.6179 6.93685C11.0782 6.96198 11.4362 7.10562 11.6833 7.36357C11.9292 7.62091 12.0661 7.99377 12.0898 8.47317C12.0928 8.539 12.0425 8.59468 11.9777 8.59823H11.9717Z" fill="white"/>
<path d="M13.1395 8.99429H13.1365C13.0717 8.99247 13.0202 8.938 13.0214 8.87217C13.0396 8.06661 12.8015 7.3855 12.3133 6.84686C12.0704 6.5781 11.7754 6.36568 11.4356 6.21544C11.0952 6.0652 10.6984 5.97247 10.2575 5.93953C10.1926 5.9347 10.1436 5.8773 10.1484 5.81208C10.1533 5.74624 10.2096 5.69655 10.2744 5.70132C11.2157 5.77137 11.9602 6.1023 12.4877 6.68586C13.0178 7.27063 13.277 8.00854 13.2576 8.8776C13.2558 8.94277 13.2031 8.99429 13.1395 8.99429Z" fill="#AA5ABE"/>
<path d="M13.1395 8.99429H13.1365C13.0717 8.99247 13.0202 8.938 13.0214 8.87217C13.0396 8.06661 12.8015 7.3855 12.3133 6.84686C12.0704 6.5781 11.7754 6.36568 11.4356 6.21544C11.0952 6.0652 10.6984 5.97247 10.2575 5.93953C10.1926 5.9347 10.1436 5.8773 10.1484 5.81208C10.1533 5.74624 10.2096 5.69655 10.2744 5.70132C11.2157 5.77137 11.9602 6.1023 12.4877 6.68586C13.0178 7.27063 13.277 8.00854 13.2576 8.8776C13.2558 8.94277 13.2031 8.99429 13.1395 8.99429Z" fill="white"/>
<path d="M14.3354 9.46735C14.2705 9.46735 14.2179 9.41472 14.2173 9.34884C14.2118 8.63666 14.1034 7.9926 13.8938 7.43367C13.6854 6.87884 13.371 6.39106 12.9592 5.98409C12.5467 5.57768 12.0778 5.26766 11.5653 5.06235C11.0517 4.85648 10.4793 4.74999 9.86387 4.74577C9.79904 4.74516 9.74633 4.69131 9.74695 4.62548C9.74757 4.55965 9.80027 4.50696 9.8651 4.50696H9.86567C11.1577 4.51655 12.2534 4.95586 13.1239 5.8135C13.5606 6.24443 13.8938 6.76093 14.1143 7.34926C14.3335 7.93398 14.4474 8.60671 14.4535 9.34706C14.4541 9.41289 14.4014 9.46674 14.3366 9.46735H14.3354Z" fill="#AA5ABE"/>
<path d="M14.3354 9.46735C14.2705 9.46735 14.2179 9.41472 14.2173 9.34884C14.2118 8.63666 14.1034 7.9926 13.8938 7.43367C13.6854 6.87884 13.371 6.39106 12.9592 5.98409C12.5467 5.57768 12.0778 5.26766 11.5653 5.06235C11.0517 4.85648 10.4793 4.74999 9.86387 4.74577C9.79904 4.74516 9.74633 4.69131 9.74695 4.62548C9.74757 4.55965 9.80027 4.50696 9.8651 4.50696H9.86567C11.1577 4.51655 12.2534 4.95586 13.1239 5.8135C13.5606 6.24443 13.8938 6.76093 14.1143 7.34926C14.3335 7.93398 14.4474 8.60671 14.4535 9.34706C14.4541 9.41289 14.4014 9.46674 14.3366 9.46735H14.3354Z" fill="white"/>
</g>
</g>
</svg>
