<svg width="20" height="21" viewBox="0 0 20 21" fill="none" xmlns="http://www.w3.org/2000/svg">
<g id="social/WhatsApp">
<g id="WhatsApp">
<path fill-rule="evenodd" clip-rule="evenodd" d="M5.42233 8.08974C5.38787 7.63188 5.47773 7.17321 5.68253 6.7619C5.74493 6.59803 5.83166 6.44441 5.93983 6.3062C6.13291 6.04599 6.3909 5.84058 6.6882 5.71031C6.6882 5.71031 7.57183 5.62389 7.64829 5.74225C8.05778 6.45046 8.40034 7.19505 8.67158 7.9664C8.80684 8.47088 8.09672 9.0467 8.09672 9.0467C8.09672 9.0467 7.64682 9.27521 8.09672 9.84106C8.43194 10.2634 9.0024 10.9993 9.34497 11.271C9.70684 11.566 10.0918 11.8318 10.4962 12.0657C11.3328 12.5278 11.4886 12.4786 11.4886 12.4786C11.4886 12.4786 11.643 12.5414 12.0635 11.9703C12.2884 11.6671 12.534 11.3111 12.7677 11.2394C13.0383 11.1569 15.223 12.407 15.1363 12.3197C15.2892 12.4733 15.1686 12.9659 15.1686 12.9659C15.1686 12.9659 15.2157 13.517 14.3835 14.1524C13.8351 14.5715 12.928 14.6712 12.928 14.6712C12.3568 14.6305 11.7954 14.5021 11.2637 14.2904C10.3771 13.9574 9.44052 13.6772 8.22462 12.5747C7.37995 11.8105 6.64614 10.933 6.04425 9.96733C5.40469 8.86858 5.42233 8.08974 5.42233 8.08974ZM10.1918 19.8823C8.4966 19.8847 6.82978 19.4484 5.35467 18.6161L0 20.3271L1.75989 15.1174C0.649281 13.2644 0.185294 11.0973 0.440252 8.95399C0.69521 6.81071 1.65477 4.8117 3.16938 3.26861C4.68399 1.72552 6.66852 0.725078 8.81355 0.423247C10.9586 0.121416 13.1436 0.535161 15.0279 1.59998C16.9122 2.6648 18.3899 4.32085 19.2307 6.30995C20.0715 8.29904 20.228 10.5094 19.676 12.5964C19.1239 14.6834 17.8943 16.5298 16.1787 17.8477C14.4632 19.1657 12.3582 19.881 10.1918 19.8823ZM10.1757 1.99235C8.66904 1.98677 7.19008 2.3952 5.90135 3.17274C4.61262 3.95028 3.56403 5.06682 2.87092 6.39957C2.1778 7.73233 1.86699 9.2297 1.97264 10.727C2.0783 12.2244 2.59636 13.6637 3.46982 14.8867L2.68911 17.2451L2.69205 17.2473L2.46415 17.9124L3.78886 17.5206C3.78675 17.5181 3.78426 17.5159 3.7815 17.5141L5.59876 16.9443C6.66275 17.6604 7.88054 18.1178 9.15422 18.2797C10.4279 18.4415 11.722 18.3034 12.9323 17.8764C14.1427 17.4494 15.2356 16.7454 16.1232 15.821C17.0108 14.8966 17.6683 13.7776 18.0428 12.554C18.4174 11.3304 18.4985 10.0363 18.2798 8.77578C18.061 7.51524 17.5484 6.32342 16.7832 5.29615C16.018 4.26888 15.0216 3.43481 13.874 2.86101C12.7264 2.28721 11.4597 1.98968 10.1757 1.99235V1.99235Z" fill="#00C232"/>
<path fill-rule="evenodd" clip-rule="evenodd" d="M5.42233 8.08974C5.38787 7.63188 5.47773 7.17321 5.68253 6.7619C5.74493 6.59803 5.83166 6.44441 5.93983 6.3062C6.13291 6.04599 6.3909 5.84058 6.6882 5.71031C6.6882 5.71031 7.57183 5.62389 7.64829 5.74225C8.05778 6.45046 8.40034 7.19505 8.67158 7.9664C8.80684 8.47088 8.09672 9.0467 8.09672 9.0467C8.09672 9.0467 7.64682 9.27521 8.09672 9.84106C8.43194 10.2634 9.0024 10.9993 9.34497 11.271C9.70684 11.566 10.0918 11.8318 10.4962 12.0657C11.3328 12.5278 11.4886 12.4786 11.4886 12.4786C11.4886 12.4786 11.643 12.5414 12.0635 11.9703C12.2884 11.6671 12.534 11.3111 12.7677 11.2394C13.0383 11.1569 15.223 12.407 15.1363 12.3197C15.2892 12.4733 15.1686 12.9659 15.1686 12.9659C15.1686 12.9659 15.2157 13.517 14.3835 14.1524C13.8351 14.5715 12.928 14.6712 12.928 14.6712C12.3568 14.6305 11.7954 14.5021 11.2637 14.2904C10.3771 13.9574 9.44052 13.6772 8.22462 12.5747C7.37995 11.8105 6.64614 10.933 6.04425 9.96733C5.40469 8.86858 5.42233 8.08974 5.42233 8.08974ZM10.1918 19.8823C8.4966 19.8847 6.82978 19.4484 5.35467 18.6161L0 20.3271L1.75989 15.1174C0.649281 13.2644 0.185294 11.0973 0.440252 8.95399C0.69521 6.81071 1.65477 4.8117 3.16938 3.26861C4.68399 1.72552 6.66852 0.725078 8.81355 0.423247C10.9586 0.121416 13.1436 0.535161 15.0279 1.59998C16.9122 2.6648 18.3899 4.32085 19.2307 6.30995C20.0715 8.29904 20.228 10.5094 19.676 12.5964C19.1239 14.6834 17.8943 16.5298 16.1787 17.8477C14.4632 19.1657 12.3582 19.881 10.1918 19.8823ZM10.1757 1.99235C8.66904 1.98677 7.19008 2.3952 5.90135 3.17274C4.61262 3.95028 3.56403 5.06682 2.87092 6.39957C2.1778 7.73233 1.86699 9.2297 1.97264 10.727C2.0783 12.2244 2.59636 13.6637 3.46982 14.8867L2.68911 17.2451L2.69205 17.2473L2.46415 17.9124L3.78886 17.5206C3.78675 17.5181 3.78426 17.5159 3.7815 17.5141L5.59876 16.9443C6.66275 17.6604 7.88054 18.1178 9.15422 18.2797C10.4279 18.4415 11.722 18.3034 12.9323 17.8764C14.1427 17.4494 15.2356 16.7454 16.1232 15.821C17.0108 14.8966 17.6683 13.7776 18.0428 12.554C18.4174 11.3304 18.4985 10.0363 18.2798 8.77578C18.061 7.51524 17.5484 6.32342 16.7832 5.29615C16.018 4.26888 15.0216 3.43481 13.874 2.86101C12.7264 2.28721 11.4597 1.98968 10.1757 1.99235V1.99235Z" fill="white"/>
</g>
</g>
</svg>
