<svg width="174" height="41" viewBox="0 0 174 41" fill="none" xmlns="http://www.w3.org/2000/svg">
<path d="M39.9543 30.4068C39.9543 31.9118 38.6536 33.1319 37.0491 33.1319C35.4446 33.1319 34.1439 31.9118 34.1439 30.4068C34.1439 28.9018 35.4446 27.6817 37.0491 27.6817C38.6536 27.6817 39.9543 28.9018 39.9543 30.4068Z" fill="#00A0E3"/>
<path d="M78.7294 9.87624C79.99 8.97217 80.2663 7.2744 79.1747 6.19416C76.0038 3.05629 71.8516 0.961892 67.315 0.25953C61.8488 -0.586739 56.2555 0.654643 51.7246 3.7197C47.1937 6.78476 44.0826 11.4317 43.0528 16.6723C42.023 21.913 43.1558 27.3339 46.2103 31.7824C49.2648 36.2309 54.0001 39.356 59.4091 40.4932C64.8181 41.6304 70.4742 40.6899 75.1747 37.8718C79.8751 35.0536 83.2491 30.5802 84.5791 25.4026C85.6737 21.1419 85.3129 16.6809 83.594 12.6684C82.9832 11.2426 81.1405 10.7981 79.7359 11.589C78.3768 12.3542 77.9461 13.9928 78.4747 15.3946C79.5158 18.1549 79.6938 21.1712 78.9515 24.0609C77.9842 27.8265 75.5303 31.0801 72.1116 33.1298C68.6929 35.1794 64.5791 35.8635 60.6451 35.0364C56.7111 34.2093 53.2671 31.9364 51.0455 28.701C48.8239 25.4655 48 21.5228 48.749 17.7112C49.498 13.8996 51.7607 10.5199 55.0561 8.29062C58.3515 6.06138 62.4195 5.15851 66.3951 5.77401C69.3897 6.23762 72.1538 7.53512 74.3633 9.47702C75.5639 10.5322 77.4224 10.8136 78.7294 9.87624Z" fill="#00A0E3"/>
<path d="M39.9543 38.239C39.9543 39.7441 38.6536 40.9641 37.0491 40.9641C35.4446 40.9641 34.1439 39.7441 34.1439 38.239C34.1439 36.734 35.4446 35.5139 37.0491 35.5139C38.6536 35.5139 39.9543 36.734 39.9543 38.239Z" fill="#00A0E3"/>
<path d="M111.517 0.340665C110.239 0.747017 109.453 1.89567 109.52 3.10038L99.881 29.7736L89.2621 2.20007C88.7094 0.764914 87.021 0.0217701 85.491 0.540217C83.961 1.05865 83.1687 2.64233 83.7215 4.07748L97.1071 38.8351C97.6598 40.2702 99.3482 41.0134 100.878 40.495C100.978 40.4612 101.074 40.423 101.167 40.3805C101.945 40.0926 102.587 39.4978 102.877 38.6971L112.572 11.8675L122.268 38.6971C122.613 39.6522 123.46 40.3144 124.44 40.5121C125.956 40.9964 127.613 40.254 128.159 38.8351L141.545 4.07748C142.097 2.64233 141.305 1.05865 139.775 0.540217C138.245 0.0217701 136.557 0.764914 136.004 2.20007L125.322 29.9369L115.624 3.10038C115.691 1.89567 114.905 0.747017 113.627 0.340665C113.277 0.229383 112.921 0.183325 112.572 0.195585C112.224 0.183325 111.867 0.229383 111.517 0.340665Z" fill="white"/>
<path d="M0 3.69768C0 2.21377 1.28246 1.01079 2.86446 1.01079C4.44646 1.01079 5.72892 2.21375 5.72892 3.69768V19.0149L19.972 26.6083L34.221 19.0118V3.69768C34.221 2.21377 35.5035 1.01079 37.0855 1.01079C38.6675 1.01079 39.9499 2.21375 39.9499 3.69768V20.4695C39.9557 20.5674 39.9557 20.6653 39.9499 20.7626C39.8985 21.6334 39.3901 22.4611 38.5159 22.9272L21.4241 32.0393C20.9667 32.2831 20.4664 32.3974 19.9727 32.3944C19.4786 32.3976 18.9779 32.2834 18.52 32.0393L5.72892 25.22V38.1618C5.72892 39.6457 4.44646 40.8487 2.86446 40.8487C1.28246 40.8487 0 39.6457 0 38.1618V3.69768Z" fill="white"/>
<path fill-rule="evenodd" clip-rule="evenodd" d="M153.243 0.724852C152.007 0.58199 150.762 1.19005 150.211 2.30676L133.045 37.0753C132.361 38.46 133.004 40.1023 134.48 40.7435C135.956 41.3848 137.707 40.7821 138.39 39.3975L142.752 30.5635C142.933 30.5962 143.12 30.6133 143.312 30.6133H164.044L168.381 39.3975C169.065 40.7821 170.815 41.3848 172.292 40.7435C173.768 40.1023 174.41 38.46 173.727 37.0753L156.54 2.26458C155.949 1.06813 154.562 0.455553 153.243 0.724852ZM161.316 25.0875L153.386 9.0252L145.456 25.0875L161.316 25.0875Z" fill="white"/>
</svg>
